<svg xmlns="http://www.w3.org/2000/svg" xmlns:xlink="http://www.w3.org/1999/xlink" viewBox="0 0 534.5 370.63"><defs><style>.cls-1{fill:none;}.cls-2{isolation:isolate;}.cls-23,.cls-3{opacity:0.8;}.cls-3{fill:url(#Áåçûìÿííûé_ãðàäèåíò_19);}.cls-4,.cls-9{fill:#42e8e0;}.cls-4{opacity:0.1;}.cls-5{opacity:0.67;}.cls-6{fill:#0f054c;}.cls-7{opacity:0.9;}.cls-8{fill:#080344;}.cls-10{fill:url(#Áåçûìÿííûé_ãðàäèåíò_2);}.cls-11{fill:url(#Áåçûìÿííûé_ãðàäèåíò_24);}.cls-12{fill:#24126a;}.cls-13{opacity:0.51;}.cls-14{fill:#453c9e;}.cls-15{fill:url(#Áåçûìÿííûé_ãðàäèåíò_24-2);}.cls-16{fill:url(#Áåçûìÿííûé_ãðàäèåíò_2-2);}.cls-17{fill:#fff;}.cls-18{opacity:0.15;}.cls-19{clip-path:url(#clip-path);}.cls-20{fill:url(#Áåçûìÿííûé_ãðàäèåíò_24-3);}.cls-21{fill:url(#Áåçûìÿííûé_ãðàäèåíò_2-3);}.cls-22,.cls-24{opacity:0.5;}.cls-24{mix-blend-mode:lighten;fill:url(#Áåçûìÿííûé_ãðàäèåíò_21);}</style><radialGradient id="Áåçûìÿííûé_ãðàäèåíò_19" cx="-169.04" cy="476.88" r="342.3" gradientTransform="matrix(-1, 0, 0, 1.18, 600, -83.57)" gradientUnits="userSpaceOnUse"><stop offset="0" stop-color="#ff2c9c"/><stop offset="0.03" stop-color="#f62f9f"/><stop offset="0.2" stop-color="#c63eb0"/><stop offset="0.37" stop-color="#9e4bbe"/><stop offset="0.54" stop-color="#7f54c9"/><stop offset="0.7" stop-color="#695bd1"/><stop offset="0.86" stop-color="#5c60d5"/><stop offset="1" stop-color="#5761d7"/></radialGradient><linearGradient id="Áåçûìÿííûé_ãðàäèåíò_2" x1="-102.78" y1="575.19" x2="53.55" y2="575.19" gradientTransform="matrix(-1, 0, 0, 1, 560.71, 0)" gradientUnits="userSpaceOnUse"><stop offset="0" stop-color="#c0bff6"/><stop offset="0.29" stop-color="#c5c4f7"/><stop offset="0.64" stop-color="#d3d2f9"/><stop offset="1" stop-color="#e9e9fd"/></linearGradient><linearGradient id="Áåçûìÿííûé_ãðàäèåíò_24" x1="-102.78" y1="615.28" x2="-75.93" y2="615.28" gradientTransform="matrix(-1, 0, 0, 1, 560.71, 0)" gradientUnits="userSpaceOnUse"><stop offset="0" stop-color="#5761d7"/><stop offset="0.18" stop-color="#5c66d9"/><stop offset="0.39" stop-color="#6a73df"/><stop offset="0.61" stop-color="#8289e8"/><stop offset="0.85" stop-color="#a3a7f5"/><stop offset="1" stop-color="#bcbeff"/></linearGradient><linearGradient id="Áåçûìÿííûé_ãðàäèåíò_24-2" x1="-81.83" y1="659.02" x2="138.95" y2="659.02" xlink:href="#Áåçûìÿííûé_ãðàäèåíò_24"/><linearGradient id="Áåçûìÿííûé_ãðàäèåíò_2-2" x1="-179.92" y1="652.98" x2="145.41" y2="652.98" xlink:href="#Áåçûìÿííûé_ãðàäèåíò_2"/><clipPath id="clip-path" transform="translate(-229.35 -428.38)"><polygon class="cls-1" points="659.76 564.39 523.8 485.93 506.72 587.5 642.59 665.9 659.76 564.39"/></clipPath><linearGradient id="Áåçûìÿííûé_ãðàäèåíò_24-3" x1="-166.73" y1="610.43" x2="54.05" y2="610.43" xlink:href="#Áåçûìÿííûé_ãðàäèåíò_24"/><linearGradient id="Áåçûìÿííûé_ãðàäèåíò_2-3" x1="-92.55" y1="604.39" x2="128.35" y2="604.39" xlink:href="#Áåçûìÿííûé_ãðàäèåíò_2"/><linearGradient id="Áåçûìÿííûé_ãðàäèåíò_21" x1="745.38" y1="582.16" x2="792.01" y2="602.11" gradientTransform="translate(-148.43)" gradientUnits="userSpaceOnUse"><stop offset="0" stop-color="#42e8e0"/><stop offset="0.11" stop-color="#37b6bf"/><stop offset="0.22" stop-color="#2c87a1"/><stop offset="0.34" stop-color="#235f87"/><stop offset="0.46" stop-color="#1c3f72"/><stop offset="0.58" stop-color="#162561"/><stop offset="0.71" stop-color="#121355"/><stop offset="0.85" stop-color="#10084e"/><stop offset="1" stop-color="#0f054c"/></linearGradient></defs><title>project2</title><g class="cls-2"><g id="Ñëîé_1" data-name="Ñëîé 1"><path class="cls-3" d="M746,428.88a3.35,3.35,0,0,0-3.5,0,1.32,1.32,0,0,0-.54,1.83l-54.17,36.85v46.52l-13.2,9v50.6l-45.2,30.75-7-4.79,34.86-23.71V548.15l-.14-.09-39.63-27v-9.41l22.41-15.25a3.38,3.38,0,0,0,3.19-.17,1.34,1.34,0,0,0,0-2.38,3.35,3.35,0,0,0-3.5,0,1.31,1.31,0,0,0-.25,2.17l-22.41,15.25v10.16l.14.09,39.63,27v27l-26.34,17.92V581.88l12.07-8.21a3.38,3.38,0,0,0,3.19-.17,1.34,1.34,0,0,0,0-2.38,3.35,3.35,0,0,0-3.5,0,1.31,1.31,0,0,0-.25,2.17l-12.07,8.21v12.31l-8,5.42-9.42-6.41V572.7l17.77-12.09V546.7l-.14-.09-37.4-25.44a1.31,1.31,0,0,0-.25-2.17,3.35,3.35,0,0,0-3.5,0,1.34,1.34,0,0,0,0,2.38,3.38,3.38,0,0,0,3.19.17l37.54,25.54v13.16l-17.21,11.71V558.07l-.14-.09-22.88-15.57a1.31,1.31,0,0,0-.25-2.17,3.35,3.35,0,0,0-3.5,0,1.34,1.34,0,0,0,0,2.38,3.38,3.38,0,0,0,3.19.17l23,15.66v34l-6.62-4.5-10.9,7.42-9.87-6.72V572.32l-.14-.09-26.1-17.76V539.08a3,3,0,0,0,1.47-.47,1.34,1.34,0,0,0,0-2.38,3.35,3.35,0,0,0-3.5,0,1.34,1.34,0,0,0,0,2.38,3,3,0,0,0,1.47.47v15.76l.14.09,26.1,17.76v15.57l-42.48-28.9V528.73l23-15.67h21.14l.06,0,36.28-24.68a3.38,3.38,0,0,0,3.19-.17,1.34,1.34,0,0,0,0-2.38,3.35,3.35,0,0,0-3.5,0,1.31,1.31,0,0,0-.25,2.17L585.38,512.4h-20L632,467.06a3.38,3.38,0,0,0,3.19-.17,1.34,1.34,0,0,0,0-2.38,3.35,3.35,0,0,0-3.5,0,1.31,1.31,0,0,0-.25,2.17l-90.65,61.67v31.39l.14.09,52.77,35.9L583.08,603,493,541.67V505.1l-.14-.09-30.64-20.84A1.31,1.31,0,0,0,462,482a3.35,3.35,0,0,0-3.5,0,1.34,1.34,0,0,0,0,2.38,3.38,3.38,0,0,0,3.19.17l30.78,20.94V542l.14.09,90,61.2-10.11,6.88-89.1-60.61H430.18L397,527V492.29a2.83,2.83,0,0,0,1-.4,1.34,1.34,0,0,0,0-2.38,3.35,3.35,0,0,0-3.5,0,1.34,1.34,0,0,0,0,2.38,3.22,3.22,0,0,0,2,.48v35l.14.09L430,550.25h53.14l75.21,51.17H543.25L517.58,584H497.81l-.06,0-27.42,18.66a3.38,3.38,0,0,0-3.19.17,1.34,1.34,0,0,0,0,2.38,3.35,3.35,0,0,0,3.5,0,1.31,1.31,0,0,0,.25-2.17L498,584.61h19.48l25.67,17.46h16.24l12.52,8.52-27,18.36-7.67-5.22V610l-19.5-13.26a1.31,1.31,0,0,0-.25-2.17,3.35,3.35,0,0,0-3.5,0,1.34,1.34,0,0,0,0,2.38,3.38,3.38,0,0,0,3.19.17l19.5,13.26v13l-20.79-14.14H506l-.06,0-11.74,8a3.38,3.38,0,0,0-3.19.17,1.34,1.34,0,0,0,0,2.38,3.35,3.35,0,0,0,3.5,0,1.31,1.31,0,0,0,.25-2.17l11.4-7.75h9.55l28.62,19.47-5.2,3.54,16.59,11.29-7.77,5.28H536.2l-8.41-5.72a1.31,1.31,0,0,0-.28-2.15,3.35,3.35,0,0,0-3.5,0,1.34,1.34,0,0,0,0,2.38,3.38,3.38,0,0,0,3.23.15l8.8,6H547l-19.81,13.48-46.61-31.71H447l-.06,0-18.88,12.85a3.38,3.38,0,0,0-3.19.17,1.34,1.34,0,0,0,0,2.38,3.35,3.35,0,0,0,3.5,0,1.31,1.31,0,0,0,.25-2.17l18.54-12.61h33.24L516.36,657H501l-15-10.23a1.31,1.31,0,0,0-.25-2.17,3.35,3.35,0,0,0-3.5,0,1.34,1.34,0,0,0,0,2.38,3.38,3.38,0,0,0,3.19.17l15.45,10.51h16.5l9.3,6.32L503,680H427.33l-58.75-40a1.31,1.31,0,0,0-.25-2.17,3.35,3.35,0,0,0-3.5,0,1.34,1.34,0,0,0,0,2.38,3.38,3.38,0,0,0,3.19.17l59.16,40.24H502l-9.39,6.39h-56l-.06,0L409,705.9a3.38,3.38,0,0,0-3.19.17,1.34,1.34,0,0,0,0,2.38,3.35,3.35,0,0,0,3.5,0,1.31,1.31,0,0,0,.25-2.17l27.27-18.55h56l.06,0,63.44-43.16,7,4.79-66.7,45.37H447.83l-.06,0-58.92,40.08H307.22l-15.78-10.73v.75l15.63,10.63H389l.06,0,37-25.15v14.89l-24.37,16.58a3.38,3.38,0,0,0-3.19.17,1.34,1.34,0,0,0,0,2.38,3.35,3.35,0,0,0,3.5,0,1.31,1.31,0,0,0,.25-2.17l24.37-16.58V710h-.13L448,695.35h48.78l.06,0,67-45.61,8,5.44L441.78,743.63v16h.55V744l130.08-88.49,9.89,6.73-67.1,45.65V716l-11.9,8.09v18.77l-23.07,15.69a3.38,3.38,0,0,0-3.19.17,1.62,1.62,0,0,0-.67.84h4.82a1.48,1.48,0,0,0-.41-.64l23.07-15.69V724.52l11.34-7.72v30.06l6.69,4.55-12.06,8.21h1.11l11.51-7.83L534,759.62h1.11l-19.31-13.14V708.27l67.1-45.65,9,6.12L544.37,701a3.38,3.38,0,0,0-3.19.17,1.34,1.34,0,0,0,0,2.38,3.35,3.35,0,0,0,3.5,0,1.31,1.31,0,0,0,.25-2.17l47.49-32.3,8.69,5.91-56.8,38.64H528.85a1.61,1.61,0,0,0-.68-.86,3.35,3.35,0,0,0-3.5,0,1.34,1.34,0,0,0,0,2.38,3.35,3.35,0,0,0,3.5,0,1.61,1.61,0,0,0,.68-.86h15.59l.06,0,57.14-38.87,3.51,2.39,2.7-1.84,13.61,9.26V698.1l-11.24,7.65v0H592.58l-.06,0-19.36,13.17a3.38,3.38,0,0,0-3.19.17,1.34,1.34,0,0,0,0,2.38,3.35,3.35,0,0,0,3.5,0,1.31,1.31,0,0,0,.25-2.17l19-12.94h16.59l-33.06,22.49A3.37,3.37,0,0,0,573,729a1.34,1.34,0,0,0,0,2.38,3.35,3.35,0,0,0,3.5,0,1.31,1.31,0,0,0,.3-2.13l41.23-28v6.2L593.5,724.07v11.78l-20,13.59a3.38,3.38,0,0,0-3.19.17,1.34,1.34,0,0,0,0,2.38,3.35,3.35,0,0,0,3.5,0,1.31,1.31,0,0,0,.25-2.17l20-13.59V724.45l24.53-16.69v-7l3.44-2.34V684.83l-13.61-9.26,8.94-6.08,28,19.05V710.2l-19,12.94a3.37,3.37,0,0,0-3.26.13,1.34,1.34,0,0,0,0,2.38,3.35,3.35,0,0,0,3.5,0,1.31,1.31,0,0,0,.31-2.13L645.36,711v17.5l-14.6,9.93v21.24h.55V738.75l14-9.55v30.42h.55V688.17l-28-19.05,10-6.83,36.6,24.9v59.3l17.59,12v1.17h.55v-1.54l-17.59-12v-59.3l-36.6-24.9,7.44-5.06,49.4,33.6V741l27.31,18.58h1.11l-27.86-19v-50.6l-49.4-33.6,12.06-8.21,82.19,55.91v25.18l28.17,19.16v-.75L731.3,729V703.79l-46.23-31.45h36.56l37.28,25.36V697l-37.13-25.26H684.12l-35-23.81,14-9.54,30.08,20.47h48.31l17.39,11.83v-.75l-3.81-2.59h3.81v-.65h-4.77l-12.47-8.48H693.37L685,652.43h20.54l.06,0,10.3-7h42.92l.14.1v-.75h-42.1l11.6-7.89a3.38,3.38,0,0,0,3.19-.17,1.34,1.34,0,0,0,0-2.38,3.35,3.35,0,0,0-3.5,0,1.31,1.31,0,0,0-.25,2.17l-22.52,15.32H684L663.69,638l7.5-5.1-4.83-3.28h14l18.34,12.48a1.31,1.31,0,0,0,.25,2.17,3.35,3.35,0,0,0,3.5,0,1.34,1.34,0,0,0,0-2.38,3.38,3.38,0,0,0-3.19-.17l-18.75-12.75H665.41l-10.27-7,6.31-4.3h11.2l9.85-6.7h7.35l16.59,11.29a1.31,1.31,0,0,0,.2,2.21,3.35,3.35,0,0,0,3.5,0,1.34,1.34,0,0,0,0-2.38,3.39,3.39,0,0,0-3.14-.2L690,610.3h-7.64l-9.85,6.7H662.41l20.18-13.73h10.9l22.72,15.45h42.7v-.65H716.36l-22.72-15.45h-11.2l-.06,0-27.8,18.91-7.29-5,31.41-21.37h22.16l18.28,12.43h39.78V607H719.29L702,595.24h56.95v-.65H678.56l-.06,0-31.75,21.6-8.29-5.64,43.8-29.8h76.66v-.65H703.05l55.86-38v-.75l-57,38.76H682.66l41.53-28.25v-6.23l19.87-13.52a3.38,3.38,0,0,0,3.19-.17,1.34,1.34,0,0,0,0-2.38,3.35,3.35,0,0,0-3.5,0,1.31,1.31,0,0,0-.25,2.17l-10.82,7.36V522.06l26.23-17.84v-.75l-26.78,18.22V539.5l-8.5,5.78v6.23L681.76,580l.14.28-44,29.94-8-5.44L675.1,574v-50.6l83.81-57v-.75l-70.61,48V467.93l54-36.77.11.09a3.35,3.35,0,0,0,3.5,0A1.34,1.34,0,0,0,746,428.88Zm-127.49,233L535.13,710l-83.33-48.11,83.34-48.12Z" transform="translate(-229.35 -428.38)"/><path class="cls-4" d="M763.85,525,749,533.51v27.56l-131.6,76-10-5.77,67.88-39.19v-7l12-6.95V562l23.34-13.47a4,4,0,0,0,3.23-.15,1.08,1.08,0,0,0,0-2,3.91,3.91,0,0,0-3.54,0c-.88.51-1,1.3-.25,1.87L686.8,561.68V577.8l-11.47,6.62v-25.8l-.14-.08-6.63-3.83,39.79-23V505.89l28.27-16.32a4,4,0,0,0,3.23-.15,1.08,1.08,0,0,0,0-2,3.91,3.91,0,0,0-3.54,0c-.88.51-1,1.3-.25,1.87l-28.27,16.32v25.84l-39.79,23L603.29,517v-28.9a3.47,3.47,0,0,0,1.49-.41,1.08,1.08,0,0,0,0-2,3.91,3.91,0,0,0-3.54,0,1.08,1.08,0,0,0,0,2,3.47,3.47,0,0,0,1.49.41v29.22l.14.08,38.91,22.47H613.43L590.5,526.66c.71-.56.63-1.36-.25-1.87a3.91,3.91,0,0,0-3.54,0,1.08,1.08,0,0,0,0,2,4,4,0,0,0,3.23.15l23.34,13.48h29.47l32,18.49v32.81l-67.88,39.19-9.1-5.25,48-27.74a4,4,0,0,0,3.23-.15,1.08,1.08,0,0,0,0-2,3.91,3.91,0,0,0-3.54,0c-.88.51-1,1.3-.25,1.87l-48,27.74-8.79-5.07,57.46-33.18h15.62a1.44,1.44,0,0,0,.69.74,3.91,3.91,0,0,0,3.54,0,1.08,1.08,0,0,0,0-2,3.91,3.91,0,0,0-3.54,0,1.44,1.44,0,0,0-.69.74H645.74l-.07,0L587.87,620l-3.55-2-.14.08-2.59,1.5-13.77-7.95V600.48l11.38-6.57v0H597L616.7,582.6a4,4,0,0,0,3.23-.15,1.08,1.08,0,0,0,0-2,3.91,3.91,0,0,0-3.54,0c-.88.51-1,1.3-.25,1.87l-19.24,11.11H580.12l33.44-19.31a4,4,0,0,0,3.3-.11,1.08,1.08,0,0,0,0-2,3.91,3.91,0,0,0-3.54,0c-.86.5-1,1.26-.31,1.83L571.3,597.83v-5.32l24.82-14.33V568.06l20.2-11.66a4,4,0,0,0,3.23-.15,1.08,1.08,0,0,0,0-2,3.91,3.91,0,0,0-3.54,0c-.88.51-1,1.3-.25,1.87l-20.2,11.67v10.12l-24.82,14.33v6l-3.48,2v11.71L581,619.82,572,625l-28.33-16.36V590.09L562.89,579a4,4,0,0,0,3.3-.11,1.08,1.08,0,0,0,0-2,3.91,3.91,0,0,0-3.54,0c-.86.5-1,1.26-.31,1.83l-18.69,10.79v-15l14.77-8.52V537.64a3.47,3.47,0,0,0,1.49-.41,1.08,1.08,0,0,0,0-2,3.91,3.91,0,0,0-3.54,0,1.08,1.08,0,0,0,0,2,3.47,3.47,0,0,0,1.49.41v27.93l-14.2,8.2V524h-.56V609l28.33,16.36-10.16,5.87-37-21.38V558.94l-17.8-10.28V529.51l-15.72-9.07c.71-.57.63-1.36-.25-1.87a3.91,3.91,0,0,0-3.54,0,1.08,1.08,0,0,0,0,2,4,4,0,0,0,3.23.15l15.72,9.07V549l17.8,10.28v50.91l37,21.38-7.53,4.35L503.2,607V563.61l-.14-.08L458.83,538c.71-.56.63-1.36-.25-1.87a3.91,3.91,0,0,0-3.54,0,1.08,1.08,0,0,0,0,2,4,4,0,0,0,3.23.15l44.37,25.62v43.44l.14.08,49.83,28.77-12.2,7-83.14-48V573.65l-.14-.08-69.6-40.19c.71-.56.63-1.36-.25-1.87a3.91,3.91,0,0,0-3.54,0,1.08,1.08,0,0,0,0,2,4,4,0,0,0,3.23.15L456.7,574v21.62l.14.08,46.62,26.92h-37l-42.81-24.72c.71-.56.63-1.36-.25-1.87a3.91,3.91,0,0,0-3.54,0,1.08,1.08,0,0,0,0,2,4,4,0,0,0,3.23.15l43.22,25h38.1l35.41,20.44-14.18,8.19-30.43-17.57H446.36l-55.58-32.09H359.94l-12.57-7.26c.71-.56.63-1.36-.25-1.87a3.91,3.91,0,0,0-3.54,0,1.08,1.08,0,0,0,0,2,4,4,0,0,0,3.23.15l13,7.49h30.83l42,24.25H396.35l-17.47-10.09c.71-.57.63-1.36-.25-1.87a3.91,3.91,0,0,0-3.54,0,1.08,1.08,0,0,0,0,2,4,4,0,0,0,3.23.15l17.88,10.32h37.4l12.61,7.28h48.87l8.52,4.92H482.82l-.06,0-10.42,6H428.91l-12.25-7.07H392.11a1.44,1.44,0,0,0-.69-.74,3.91,3.91,0,0,0-3.54,0,1.08,1.08,0,0,0,0,2,3.91,3.91,0,0,0,3.54,0,1.44,1.44,0,0,0,.69-.74h24.41l12.25,7.07h42.6l-11.73,6.77a4,4,0,0,0-3.23.15,1.08,1.08,0,0,0,0,2,3.91,3.91,0,0,0,3.54,0c.88-.51,1-1.3.25-1.86L483,640.25h21.6l20.54,11.86-7.59,4.38.42.24,4.46,2.58H508.2l-18.56-10.71c.71-.57.63-1.36-.25-1.87a3.91,3.91,0,0,0-3.54,0,1.08,1.08,0,0,0,0,2,4,4,0,0,0,3.23.15l19,11h15.32l10.39,6-6.39,3.69H516l-.07,0-9.9,5.71h-7.43l-16.79-9.69c.75-.57.69-1.38-.21-1.9a3.91,3.91,0,0,0-3.54,0,1.08,1.08,0,0,0,0,2,4,4,0,0,0,3.18.17l17.21,9.93h7.73l.06,0,9.9-5.71h10.21L506,681.9H495l-23-13.27h-69.3l-43-24.82c.74-.57.68-1.37-.22-1.89a3.91,3.91,0,0,0-3.54,0,1.08,1.08,0,0,0,0,2,4,4,0,0,0,3.19.17l43.4,25.06h69.3l23,13.27h11.33l.06,0,28.12-16.24,7.38,4.26-31.78,18.35H487.5L469,678.12H421.56a1.44,1.44,0,0,0-.69-.74,3.91,3.91,0,0,0-3.54,0,1.08,1.08,0,0,0,0,2,3.91,3.91,0,0,0,3.54,0,1.44,1.44,0,0,0,.68-.74h47.31l17.52,10.12H419.51l-.06,0-63.73,36.79a4,4,0,0,0-3.23.15,1.08,1.08,0,0,0,0,2,3.91,3.91,0,0,0,3.54,0c.88-.51,1-1.3.25-1.87l63.38-36.59h90.41l.06,0,32.12-18.55,8.38,4.84-44.31,25.58h-78l-.06,0-68.32,39.45H280.3l-46.43-26.81c.71-.56.63-1.36-.25-1.86a3.91,3.91,0,0,0-3.54,0,1.08,1.08,0,0,0,0,2,4,4,0,0,0,3.23.15l46.84,27h79.91l.07,0,68.32-39.45h56.83l-83.45,48.18v12.68l-33.29,19.22a4,4,0,0,0-3.23.15,1.08,1.08,0,0,0,0,2,3.91,3.91,0,0,0,3.54,0c.88-.51,1-1.3.25-1.87l33.29-19.22V750.26l84-48.51h19.51L463.9,726v5.35L443.8,743a4,4,0,0,0-3.23.15,1.08,1.08,0,0,0,0,2,3.91,3.91,0,0,0,3.54,0c.88-.51,1-1.3.25-1.87L455.31,737v14.65l-63.24,36.51a4,4,0,0,0-3.23.15,1.08,1.08,0,0,0,0,2,3.91,3.91,0,0,0,3.54,0c.88-.51,1-1.3.25-1.87l63.24-36.51v-15.3l8.6-5v-5.35l42.36-24.46-.14-.24,44.52-25.7,8.09,4.67L513.56,707v43.44L429.45,799h1.12l69.64-40.2v39.29l-1.59.92h1.12l1-.59V758.48l13.35-7.71V707.33l45.73-26.4L567,685,531.71,705.4v23.81l.14.08,40.09,23.15v8.08l-22.67,13.09a4,4,0,0,0-3.23.15,1.08,1.08,0,0,0,0,2,3.91,3.91,0,0,0,3.54,0c.88-.51,1-1.3.25-1.87l22.67-13.09v-8.72l-.14-.08-40.09-23.15V705.73l26.64-15.38v9.92l-12.21,7.05a4,4,0,0,0-3.23.15,1.08,1.08,0,0,0,0,2,3.91,3.91,0,0,0,3.54,0c.88-.51,1-1.3.25-1.87l12.21-7.05V690l8.06-4.65,9.53,5.5v17.28l-18,10.38v11.95l.14.08,37.84,21.85c-.71.56-.63,1.36.25,1.87a3.91,3.91,0,0,0,3.54,0,1.08,1.08,0,0,0,0-2,4,4,0,0,0-3.23-.15l-38-21.93v-11.3l17.41-10.05V720.7l23.29,13.45c-.71.56-.63,1.36.25,1.87a3.91,3.91,0,0,0,3.54,0,1.08,1.08,0,0,0,0-2,4,4,0,0,0-3.23-.15l-23.29-13.45V691.19l6.69,3.86.14-.08,10.89-6.29,10,5.77v14l26.55,15.33V737a3.47,3.47,0,0,0-1.49.41,1.08,1.08,0,0,0,0,2,3.91,3.91,0,0,0,3.54,0,1.08,1.08,0,0,0,0-2,3.47,3.47,0,0,0-1.49-.41V723.47l-26.55-15.33V694.78l43,24.81v26.3l-23.31,13.46H604.17l-.06,0-36.7,21.19a4,4,0,0,0-3.23.15,1.08,1.08,0,0,0,0,2,3.91,3.91,0,0,0,3.54,0c.88-.51,1-1.3.25-1.86l36.36-21h20.27l-67.42,38.93a4,4,0,0,0-3.23.15l0,0H558l91.44-52.79V719.27l-.14-.08-53.38-30.82,10.74-6.2,91.14,52.62v31.4l31.14,18c-.71.56-.63,1.36.25,1.87a3.91,3.91,0,0,0,3.54,0,1.08,1.08,0,0,0,0-2,4,4,0,0,0-3.23-.15l-31.14-18v-31.4l-.14-.08-91-52.54,10.23-5.91,90.14,52h53.75l2.52,1.46v-.65l-2.37-1.37H707.73l-76.09-43.93h15.3l26,15h20l.07,0,27.74-16a4,4,0,0,0,3.23-.15,1.08,1.08,0,0,0,0-2,3.91,3.91,0,0,0-3.54,0c-.88.51-1,1.3-.25,1.87l-27.4,15.82h-19.7l-26-15H630.67L618,675.61l27.3-15.76,7.76,4.48V676.1l19.72,11.39c-.71.56-.63,1.36.25,1.86a3.91,3.91,0,0,0,3.54,0,1.08,1.08,0,0,0,0-2,4,4,0,0,0-3.23-.15l-19.72-11.39V664.65l21,12.14h10l.07,0,11.88-6.86a4,4,0,0,0,3.23-.15,1.08,1.08,0,0,0,0-2,3.91,3.91,0,0,0-3.54,0c-.88.51-1,1.3-.25,1.87l-11.53,6.66h-9.66l-28.95-16.71,5.26-3-.42-.24-16.36-9.45,7.86-4.54h11.88l8.5,4.91c-.68.56-.59,1.34.28,1.84a3.91,3.91,0,0,0,3.54,0,1.08,1.08,0,0,0,0-2,4,4,0,0,0-3.27-.13l-8.91-5.14H643.17l20-11.57,47.15,27.22h33.93l.07,0,19.1-11a3.49,3.49,0,0,0,.4.11v-2.58a3,3,0,0,0-.7.28c-.88.51-1,1.3-.25,1.87l-18.76,10.83H710.51l-36.36-21h15.56l15.21,8.78c-.71.56-.63,1.36.25,1.87a3.91,3.91,0,0,0,3.54,0,1.08,1.08,0,0,0,0-2,4,4,0,0,0-3.23-.15l-15.63-9H673.18l-9.41-5.43L687.71,616h76.14v-.56H688.68l9.5-5.48h56.63l.06,0,9-5.18v-.65l-9.19,5.31H698l-.06,0-64.18,37.05-7.12-4.11,67.47-39h49.35l.06,0,20.31-11.73V591l-20.53,11.85H694l-.06,0L626.09,642,618,637.36l131.6-76V533.83l14.25-8.23ZM618.63,657.48,552.94,695.4l-65.68-37.92,65.69-37.92Z" transform="translate(-229.35 -428.38)"/><g class="cls-5"><polygon class="cls-6" points="306.78 338.53 137.99 241.08 306.77 143.63 475.57 241.08 306.78 338.53"/></g><g class="cls-5"><polygon class="cls-6" points="306.78 323.42 164.16 241.08 306.77 158.74 449.39 241.08 306.78 323.42"/></g><g class="cls-7"><polygon class="cls-8" points="306.78 305.86 194.58 241.08 306.77 176.31 418.97 241.08 306.78 305.86"/></g><path class="cls-9" d="M559.22,736.34a6.21,6.21,0,0,1-3-.77L422.24,658.24a2.5,2.5,0,0,1-1.45-2,1.94,1.94,0,0,1,1.1-1.66l79.93-46.15a6,6,0,0,1,5.43.21l133.95,77.33a2.5,2.5,0,0,1,1.45,2,1.93,1.93,0,0,1-1.1,1.66l-79.93,46.15A4.87,4.87,0,0,1,559.22,736.34Zm-136.5-78.93,133.95,77.33a5.06,5.06,0,0,0,4.47.21l79.93-46.15a1.05,1.05,0,0,0,.62-.83c0-.4-.36-.85-1-1.2L506.76,609.44a5.07,5.07,0,0,0-4.48-.21l-79.93,46.15a1.05,1.05,0,0,0-.62.83c0,.4.36.85,1,1.2Z" transform="translate(-229.35 -428.38)"/><path class="cls-10" d="M507.19,584.91l16.93-100.46-1.36-.57,2-1.17h0a1.47,1.47,0,0,1,1.58.11L661.7,561a3.82,3.82,0,0,1,1.76,3.44L646.39,665.65a1.27,1.27,0,0,1-.71,1h0l-2,1.16-.34-1.87.11,0-134.5-77.65A3.82,3.82,0,0,1,507.19,584.91Z" transform="translate(-229.35 -428.38)"/><path class="cls-11" d="M660.95,563.71l2.22-1a3.06,3.06,0,0,1,.29,1.67L646.39,665.65a1.27,1.27,0,0,1-.71,1h0l-2,1.16-.34-1.87.11,0-6.81-3.93Z" transform="translate(-229.35 -428.38)"/><path class="cls-12" d="M506.83,589.57,642.15,667.7c1,.6,1.94.25,2.12-.83l17.07-101.25a3.82,3.82,0,0,0-1.76-3.44L524.26,484c-1-.6-1.94-.25-2.12.83L505.07,586.13A3.82,3.82,0,0,0,506.83,589.57Z" transform="translate(-229.35 -428.38)"/><g class="cls-13"><polygon class="cls-14" points="294.45 57.55 430.41 136.01 413.24 237.52 277.37 159.11 294.45 57.55"/></g><path class="cls-15" d="M421.76,637.5l7.38,3.86,74.05-42.75a5.37,5.37,0,0,1,4.83.2l127.72,73.74c1.22-.68,6.79-3.36,6.79-3.36l-2.7,4.39h0a1.61,1.61,0,0,1-.76.84l-78,45a5.37,5.37,0,0,1-4.83-.2l-130.7-75.46a2.34,2.34,0,0,1-1.1-1.17h0Z" transform="translate(-229.35 -428.38)"/><path class="cls-16" d="M422.91,638.72l133.95,77.33a5.51,5.51,0,0,0,5,.21l79.93-46.15c1.27-.73,1.11-2-.36-2.86L507.43,589.92a5.51,5.51,0,0,0-5-.21l-79.93,46.15C421.28,636.59,421.44,637.87,422.91,638.72Z" transform="translate(-229.35 -428.38)"/><path class="cls-17" d="M422.91,638.12l133.95,77.33a5.51,5.51,0,0,0,5,.21l79.93-46.15a1.61,1.61,0,0,0,.81-.94,1.37,1.37,0,0,1-.81,1.54L561.8,716.26a5.51,5.51,0,0,1-5-.21L422.91,638.72c-1-.55-1.34-1.28-1.16-1.92A2.27,2.27,0,0,0,422.91,638.12Z" transform="translate(-229.35 -428.38)"/><g class="cls-18"><g class="cls-19"><path class="cls-20" d="M506.66,588.92l7.38,3.86L588.1,550a5.37,5.37,0,0,1,4.83.2L720.65,624c1.22-.68,6.79-3.36,6.79-3.36l-2.7,4.39h0a1.61,1.61,0,0,1-.76.84l-78,45a5.37,5.37,0,0,1-4.83-.2l-130.7-75.46a2.34,2.34,0,0,1-1.1-1.17h0Z" transform="translate(-229.35 -428.38)"/><path class="cls-21" d="M507.8,590.13l133.95,77.33a5.51,5.51,0,0,0,5,.21l79.93-46.15c1.27-.73,1.11-2-.36-2.86L592.33,541.33a5.51,5.51,0,0,0-5-.21l-79.93,46.15C506.18,588,506.34,589.28,507.8,590.13Z" transform="translate(-229.35 -428.38)"/><path class="cls-17" d="M726.28,618.66,592.33,541.33a5.84,5.84,0,0,0-3.31-.67,5.6,5.6,0,0,1,2.32.67l133.95,77.33c1.47.85,1.63,2.13.36,2.86l-79.93,46.15a4,4,0,0,1-1.64.47,4.69,4.69,0,0,0,2.63-.47l79.93-46.15C727.9,620.79,727.74,619.51,726.28,618.66Z" transform="translate(-229.35 -428.38)"/><g class="cls-22"><path class="cls-12" d="M578,576.82l-4.29-2.48a1.44,1.44,0,0,0-1.3,0l-4.77,2.79c-.37.22-.4.56-.05.76l4.29,2.48a1.44,1.44,0,0,0,1.3,0l4.77-2.79C578.28,577.35,578.31,577,578,576.82Z" transform="translate(-229.35 -428.38)"/><path class="cls-12" d="M584.59,580.64l-4.29-2.48a1.44,1.44,0,0,0-1.3,0L574.23,581c-.37.22-.4.56-.05.76l4.29,2.48a1.44,1.44,0,0,0,1.3,0l4.77-2.79C584.91,581.18,584.94,580.84,584.59,580.64Z" transform="translate(-229.35 -428.38)"/><path class="cls-12" d="M591.22,584.47,586.93,582a1.44,1.44,0,0,0-1.3,0l-4.77,2.79c-.37.22-.4.56-.05.76l4.29,2.48a1.44,1.44,0,0,0,1.3,0l4.77-2.79C591.54,585,591.57,584.67,591.22,584.47Z" transform="translate(-229.35 -428.38)"/><path class="cls-12" d="M586.18,589.57l-4.29-2.48a1.44,1.44,0,0,0-1.3,0l-4,2.34c-.37.22-.4.56-.05.76l4.29,2.48a1.43,1.43,0,0,0,1.3,0l4-2.34C586.5,590.11,586.52,589.77,586.18,589.57Z" transform="translate(-229.35 -428.38)"/><path class="cls-12" d="M592.81,593.4l-4.29-2.48a1.44,1.44,0,0,0-1.3,0l-4,2.34c-.37.22-.4.56-.05.76l4.29,2.48a1.44,1.44,0,0,0,1.3,0l4-2.34C593.13,593.93,593.15,593.59,592.81,593.4Z" transform="translate(-229.35 -428.38)"/><path class="cls-12" d="M599.44,597.22l-4.29-2.48a1.43,1.43,0,0,0-1.3,0l-4,2.34c-.37.22-.4.56-.05.76l4.29,2.48a1.44,1.44,0,0,0,1.3,0l4-2.34C599.76,597.76,599.78,597.42,599.44,597.22Z" transform="translate(-229.35 -428.38)"/><path class="cls-12" d="M606.07,601.05l-4.29-2.48a1.44,1.44,0,0,0-1.3,0l-4,2.34c-.37.22-.4.56-.05.76l4.29,2.48a1.43,1.43,0,0,0,1.3,0l4-2.34C606.39,601.59,606.41,601.25,606.07,601.05Z" transform="translate(-229.35 -428.38)"/><path class="cls-12" d="M612.7,604.88l-4.29-2.48a1.44,1.44,0,0,0-1.3,0l-4,2.34c-.37.22-.4.56-.05.76l4.29,2.48a1.44,1.44,0,0,0,1.3,0l4-2.34C613,605.42,613,605.08,612.7,604.88Z" transform="translate(-229.35 -428.38)"/><path class="cls-12" d="M619.33,608.71,615,606.23a1.43,1.43,0,0,0-1.3,0l-4,2.34c-.37.22-.4.56-.05.76l4.29,2.48a1.44,1.44,0,0,0,1.3,0l4-2.34C619.65,609.25,619.67,608.91,619.33,608.71Z" transform="translate(-229.35 -428.38)"/><path class="cls-12" d="M626,612.54l-4.29-2.48a1.44,1.44,0,0,0-1.3,0l-4,2.34c-.37.22-.4.56-.05.76l4.29,2.48a1.44,1.44,0,0,0,1.3,0l4-2.34C626.28,613.07,626.3,612.74,626,612.54Z" transform="translate(-229.35 -428.38)"/><path class="cls-12" d="M632.59,616.36l-4.29-2.48a1.44,1.44,0,0,0-1.3,0l-4,2.34c-.37.22-.4.56-.05.76l4.29,2.48a1.44,1.44,0,0,0,1.3,0l4-2.34C632.91,616.9,632.93,616.56,632.59,616.36Z" transform="translate(-229.35 -428.38)"/><path class="cls-12" d="M639.22,620.19l-4.29-2.48a1.44,1.44,0,0,0-1.3,0l-4,2.34c-.37.22-.4.56-.05.76l4.29,2.48a1.44,1.44,0,0,0,1.3,0l4-2.34C639.54,620.73,639.57,620.39,639.22,620.19Z" transform="translate(-229.35 -428.38)"/><path class="cls-12" d="M645.85,624l-4.29-2.48a1.44,1.44,0,0,0-1.3,0l-4,2.34c-.37.22-.4.56-.05.76l4.29,2.48a1.44,1.44,0,0,0,1.3,0l4-2.34C646.17,624.56,646.2,624.22,645.85,624Z" transform="translate(-229.35 -428.38)"/><path class="cls-12" d="M583.41,595l-4.29-2.48a1.44,1.44,0,0,0-1.3,0l-4,2.34c-.37.22-.4.56-.05.76l4.29,2.48a1.43,1.43,0,0,0,1.3,0l4-2.34C583.73,595.57,583.76,595.23,583.41,595Z" transform="translate(-229.35 -428.38)"/><path class="cls-12" d="M576.68,591.15l-4.29-2.48a1.44,1.44,0,0,0-1.3,0l-4,2.34c-.37.22-.4.56-.05.76l4.29,2.48a1.43,1.43,0,0,0,1.3,0l4-2.34C577,591.69,577,591.35,576.68,591.15Z" transform="translate(-229.35 -428.38)"/><path class="cls-12" d="M569.94,587.26l-9.25-5.34a1.44,1.44,0,0,0-1.3,0l-4,2.34c-.37.22-.4.56-.05.76l9.25,5.34a1.44,1.44,0,0,0,1.3,0l4-2.34C570.26,587.79,570.29,587.45,569.94,587.26Z" transform="translate(-229.35 -428.38)"/><path class="cls-12" d="M562.12,589.8l-7.5-4.33a1.44,1.44,0,0,0-1.3,0l-4,2.34c-.37.22-.4.56-.05.76l7.5,4.33a1.44,1.44,0,0,0,1.3,0l4-2.34C562.44,590.34,562.47,590,562.12,589.8Z" transform="translate(-229.35 -428.38)"/><path class="cls-12" d="M590,598.86l-4.29-2.48a1.44,1.44,0,0,0-1.3,0l-4,2.34c-.37.22-.4.56-.05.76l4.29,2.48a1.44,1.44,0,0,0,1.3,0l4-2.34C590.36,599.4,590.39,599.06,590,598.86Z" transform="translate(-229.35 -428.38)"/><path class="cls-12" d="M596.68,602.69l-4.29-2.48a1.44,1.44,0,0,0-1.3,0l-4,2.34c-.37.22-.4.56-.05.76l4.29,2.48a1.44,1.44,0,0,0,1.3,0l4-2.34C597,603.23,597,602.89,596.68,602.69Z" transform="translate(-229.35 -428.38)"/><path class="cls-12" d="M603.31,606.52,599,604a1.44,1.44,0,0,0-1.3,0l-4,2.34c-.37.22-.4.56-.05.76l4.29,2.48a1.43,1.43,0,0,0,1.3,0l4-2.34C603.63,607.05,603.65,606.72,603.31,606.52Z" transform="translate(-229.35 -428.38)"/><path class="cls-12" d="M609.94,610.35l-4.29-2.48a1.44,1.44,0,0,0-1.3,0l-4,2.34c-.37.22-.4.56-.05.76l4.29,2.48a1.44,1.44,0,0,0,1.3,0l4-2.34C610.26,610.88,610.28,610.54,609.94,610.35Z" transform="translate(-229.35 -428.38)"/><path class="cls-12" d="M616.57,614.17l-4.29-2.48a1.43,1.43,0,0,0-1.3,0l-4,2.34c-.37.22-.4.56-.05.76l4.29,2.48a1.44,1.44,0,0,0,1.3,0l4-2.34C616.89,614.71,616.91,614.37,616.57,614.17Z" transform="translate(-229.35 -428.38)"/><path class="cls-12" d="M623.2,618l-4.29-2.48a1.44,1.44,0,0,0-1.3,0l-4,2.34c-.37.22-.4.56-.05.76l4.29,2.48a1.44,1.44,0,0,0,1.3,0l4-2.34C623.52,618.54,623.54,618.2,623.2,618Z" transform="translate(-229.35 -428.38)"/><path class="cls-12" d="M629.83,621.83l-4.29-2.48a1.44,1.44,0,0,0-1.3,0l-4,2.34c-.37.22-.4.56-.05.76l4.29,2.48a1.44,1.44,0,0,0,1.3,0l4-2.34C630.15,622.37,630.17,622,629.83,621.83Z" transform="translate(-229.35 -428.38)"/><path class="cls-12" d="M636.46,625.66l-4.29-2.48a1.44,1.44,0,0,0-1.3,0l-4,2.34c-.37.22-.4.56-.05.76l4.29,2.48a1.44,1.44,0,0,0,1.3,0l4-2.34C636.78,626.2,636.8,625.86,636.46,625.66Z" transform="translate(-229.35 -428.38)"/><path class="cls-12" d="M643.09,629.49,638.8,627a1.44,1.44,0,0,0-1.3,0l-4,2.34c-.37.22-.4.56-.05.76l4.29,2.48a1.44,1.44,0,0,0,1.3,0l4-2.34C643.41,630,643.43,629.68,643.09,629.49Z" transform="translate(-229.35 -428.38)"/><path class="cls-12" d="M654.88,636.29l-9.37-5.41a1.44,1.44,0,0,0-1.3,0l-4,2.34c-.37.22-.4.56-.05.76l9.37,5.41a1.44,1.44,0,0,0,1.3,0l4-2.34C655.2,636.83,655.22,636.49,654.88,636.29Z" transform="translate(-229.35 -428.38)"/><path class="cls-12" d="M642.72,643.39l-7.91-4.57a1.44,1.44,0,0,0-1.3,0l-4,2.34c-.37.22-.4.56-.05.76l7.91,4.57a1.43,1.43,0,0,0,1.3,0l4-2.34C643,643.93,643.07,643.59,642.72,643.39Z" transform="translate(-229.35 -428.38)"/><path class="cls-12" d="M589.12,605.39l-4.29-2.48a1.44,1.44,0,0,0-1.3,0l-4,2.34c-.37.22-.4.56-.05.76l4.29,2.48a1.43,1.43,0,0,0,1.3,0l4-2.34C589.44,605.93,589.47,605.59,589.12,605.39Z" transform="translate(-229.35 -428.38)"/><path class="cls-12" d="M582.33,601.47,578,599a1.44,1.44,0,0,0-1.3,0l-4,2.34c-.37.22-.4.56-.05.76L577,604.6a1.44,1.44,0,0,0,1.3,0l4-2.34C582.65,602,582.67,601.66,582.33,601.47Z" transform="translate(-229.35 -428.38)"/><path class="cls-12" d="M575.53,597.54l-4.29-2.48a1.43,1.43,0,0,0-1.3,0l-4,2.34c-.37.22-.4.56-.05.76l4.29,2.48a1.44,1.44,0,0,0,1.3,0l4-2.34C575.85,598.08,575.88,597.74,575.53,597.54Z" transform="translate(-229.35 -428.38)"/><path class="cls-12" d="M568.74,593.62l-4.29-2.48a1.44,1.44,0,0,0-1.3,0l-4,2.34c-.37.22-.4.56-.05.76l4.29,2.48a1.44,1.44,0,0,0,1.3,0l4-2.34C569.06,594.16,569.08,593.82,568.74,593.62Z" transform="translate(-229.35 -428.38)"/><path class="cls-12" d="M595.75,609.22l-4.29-2.48a1.44,1.44,0,0,0-1.3,0l-4,2.34c-.37.22-.4.56-.05.76l4.29,2.48a1.44,1.44,0,0,0,1.3,0l4-2.34C596.08,609.75,596.1,609.42,595.75,609.22Z" transform="translate(-229.35 -428.38)"/><path class="cls-12" d="M602.39,613l-4.29-2.48a1.43,1.43,0,0,0-1.3,0l-4,2.34c-.37.22-.4.56-.05.76l4.29,2.48a1.44,1.44,0,0,0,1.3,0l4-2.34C602.71,613.58,602.73,613.24,602.39,613Z" transform="translate(-229.35 -428.38)"/><path class="cls-12" d="M609,616.87l-4.29-2.48a1.44,1.44,0,0,0-1.3,0l-4,2.34c-.37.22-.4.56-.05.76l4.29,2.48a1.44,1.44,0,0,0,1.3,0l4-2.34C609.34,617.41,609.36,617.07,609,616.87Z" transform="translate(-229.35 -428.38)"/><path class="cls-12" d="M615.65,620.7l-4.29-2.48a1.44,1.44,0,0,0-1.3,0l-4,2.34c-.37.22-.4.56-.05.76l4.29,2.48a1.44,1.44,0,0,0,1.3,0l4-2.34C616,621.24,616,620.9,615.65,620.7Z" transform="translate(-229.35 -428.38)"/><path class="cls-12" d="M622.28,624.53,618,622.05a1.44,1.44,0,0,0-1.3,0l-4,2.34c-.37.22-.4.56-.05.76l4.29,2.48a1.44,1.44,0,0,0,1.3,0l4-2.34C622.6,625.07,622.62,624.73,622.28,624.53Z" transform="translate(-229.35 -428.38)"/><path class="cls-12" d="M628.91,628.36l-4.29-2.48a1.44,1.44,0,0,0-1.3,0l-4,2.34c-.37.22-.4.56-.05.76l4.29,2.48a1.44,1.44,0,0,0,1.3,0l4-2.34C629.23,628.9,629.25,628.56,628.91,628.36Z" transform="translate(-229.35 -428.38)"/><path class="cls-12" d="M635.54,632.19l-4.29-2.48a1.44,1.44,0,0,0-1.3,0l-4,2.34c-.37.22-.4.56-.05.76l4.29,2.48a1.44,1.44,0,0,0,1.3,0l4-2.34C635.86,632.72,635.88,632.38,635.54,632.19Z" transform="translate(-229.35 -428.38)"/><path class="cls-12" d="M642.17,636l-4.29-2.48a1.44,1.44,0,0,0-1.3,0l-4,2.34c-.37.22-.4.56-.05.76l4.29,2.48a1.44,1.44,0,0,0,1.3,0l4-2.34C642.49,636.55,642.51,636.21,642.17,636Z" transform="translate(-229.35 -428.38)"/><path class="cls-12" d="M648.8,639.84l-4.29-2.48a1.44,1.44,0,0,0-1.3,0l-4,2.34c-.37.22-.4.56-.05.76l4.29,2.48a1.44,1.44,0,0,0,1.3,0l4-2.34C649.12,640.38,649.14,640,648.8,639.84Z" transform="translate(-229.35 -428.38)"/><path class="cls-12" d="M573.1,603.2l-4.29-2.48a1.44,1.44,0,0,0-1.3,0l-4,2.34c-.37.22-.4.56-.05.76l4.29,2.48a1.44,1.44,0,0,0,1.3,0l4-2.34C573.42,603.74,573.45,603.4,573.1,603.2Z" transform="translate(-229.35 -428.38)"/><path class="cls-12" d="M566.5,599.39l-4.29-2.48a1.44,1.44,0,0,0-1.3,0l-4,2.34c-.37.22-.4.56-.05.76l4.29,2.48a1.44,1.44,0,0,0,1.3,0l4-2.34C566.82,599.93,566.85,599.59,566.5,599.39Z" transform="translate(-229.35 -428.38)"/><path class="cls-12" d="M559.91,595.58l-4.29-2.48a1.44,1.44,0,0,0-1.3,0l-4,2.34c-.37.22-.4.56-.05.76l4.29,2.48a1.44,1.44,0,0,0,1.3,0l4-2.34C560.23,596.12,560.25,595.78,559.91,595.58Z" transform="translate(-229.35 -428.38)"/><path class="cls-12" d="M553.31,591.77,549,589.29a1.44,1.44,0,0,0-1.3,0l-4,2.34c-.37.22-.4.56-.05.76l4.29,2.48a1.44,1.44,0,0,0,1.3,0l4-2.34C553.63,592.31,553.65,592,553.31,591.77Z" transform="translate(-229.35 -428.38)"/><path class="cls-12" d="M546.92,595.5,542.63,593a1.44,1.44,0,0,0-1.3,0l-1.32.77c-.37.22-.4.56-.05.76l4.29,2.48a1.43,1.43,0,0,0,1.3,0l1.32-.77C547.24,596,547.27,595.7,546.92,595.5Z" transform="translate(-229.35 -428.38)"/><path class="cls-12" d="M555.53,600.47,551.24,598a1.44,1.44,0,0,0-1.3,0l-1.32.77c-.37.22-.4.56-.05.76l4.29,2.48a1.44,1.44,0,0,0,1.3,0l1.32-.77C555.85,601,555.87,600.67,555.53,600.47Z" transform="translate(-229.35 -428.38)"/><path class="cls-12" d="M562.1,604.27l-4.29-2.48a1.44,1.44,0,0,0-1.3,0l-1.32.77c-.37.22-.4.56-.05.76l4.29,2.48a1.44,1.44,0,0,0,1.3,0L562,605C562.42,604.8,562.44,604.47,562.1,604.27Z" transform="translate(-229.35 -428.38)"/><path class="cls-12" d="M568.67,608.06l-4.29-2.48a1.44,1.44,0,0,0-1.3,0l-1.32.77c-.37.22-.4.56-.05.76l4.29,2.48a1.43,1.43,0,0,0,1.3,0l1.32-.77C569,608.6,569,608.26,568.67,608.06Z" transform="translate(-229.35 -428.38)"/><path class="cls-12" d="M575.24,611.85l-4.29-2.48a1.44,1.44,0,0,0-1.3,0l-1.32.77c-.37.22-.4.56-.05.76l4.29,2.48a1.44,1.44,0,0,0,1.3,0l1.32-.77C575.56,612.39,575.59,612.05,575.24,611.85Z" transform="translate(-229.35 -428.38)"/><path class="cls-12" d="M611.92,633l-4.29-2.48a1.44,1.44,0,0,0-1.3,0l-1.32.77c-.37.22-.4.56-.05.76l4.29,2.48a1.44,1.44,0,0,0,1.3,0l1.32-.77C612.24,633.57,612.26,633.23,611.92,633Z" transform="translate(-229.35 -428.38)"/><path class="cls-12" d="M618.49,636.82l-4.29-2.48a1.43,1.43,0,0,0-1.3,0l-1.32.77c-.37.22-.4.56-.05.76l4.29,2.48a1.44,1.44,0,0,0,1.3,0l1.32-.77C618.81,637.36,618.83,637,618.49,636.82Z" transform="translate(-229.35 -428.38)"/><path class="cls-12" d="M625.06,640.62l-4.29-2.48a1.44,1.44,0,0,0-1.3,0l-1.32.77c-.37.22-.4.56-.05.76l4.29,2.48a1.44,1.44,0,0,0,1.3,0l1.32-.77C625.38,641.15,625.4,640.81,625.06,640.62Z" transform="translate(-229.35 -428.38)"/><path class="cls-12" d="M631.63,644.41l-4.29-2.48a1.44,1.44,0,0,0-1.3,0l-1.32.77c-.37.22-.4.56-.05.76l4.29,2.48a1.43,1.43,0,0,0,1.3,0l1.32-.77C632,644.95,632,644.61,631.63,644.41Z" transform="translate(-229.35 -428.38)"/><path class="cls-12" d="M579.73,607l-4.29-2.48a1.44,1.44,0,0,0-1.3,0l-4,2.34c-.37.22-.4.56-.05.76l4.29,2.48a1.44,1.44,0,0,0,1.3,0l4-2.34C580.05,607.56,580.08,607.22,579.73,607Z" transform="translate(-229.35 -428.38)"/><path class="cls-12" d="M586.36,610.85l-4.29-2.48a1.44,1.44,0,0,0-1.3,0l-4,2.34c-.37.22-.4.56-.05.76L581,614a1.43,1.43,0,0,0,1.3,0l4-2.34C586.68,611.39,586.71,611.05,586.36,610.85Z" transform="translate(-229.35 -428.38)"/><path class="cls-12" d="M593,614.68l-4.29-2.48a1.44,1.44,0,0,0-1.3,0l-4,2.34c-.37.22-.4.56-.05.76l4.29,2.48a1.44,1.44,0,0,0,1.3,0l4-2.34C593.31,615.22,593.34,614.88,593,614.68Z" transform="translate(-229.35 -428.38)"/><path class="cls-12" d="M599.62,618.51,595.33,616a1.43,1.43,0,0,0-1.3,0l-4,2.34c-.37.22-.4.56-.05.76l4.29,2.48a1.44,1.44,0,0,0,1.3,0l4-2.34C599.94,619,600,618.71,599.62,618.51Z" transform="translate(-229.35 -428.38)"/><path class="cls-12" d="M606.25,622.34,602,619.86a1.44,1.44,0,0,0-1.3,0l-4,2.34c-.37.22-.4.56-.05.76l4.29,2.48a1.44,1.44,0,0,0,1.3,0l4-2.34C606.57,622.88,606.6,622.54,606.25,622.34Z" transform="translate(-229.35 -428.38)"/><path class="cls-12" d="M612.88,626.17l-4.29-2.48a1.44,1.44,0,0,0-1.3,0l-4,2.34c-.37.22-.4.56-.05.76l4.29,2.48a1.44,1.44,0,0,0,1.3,0l4-2.34C613.2,626.7,613.23,626.37,612.88,626.17Z" transform="translate(-229.35 -428.38)"/><path class="cls-12" d="M619.51,630l-4.29-2.48a1.44,1.44,0,0,0-1.3,0l-4,2.34c-.37.22-.4.56-.05.76l4.29,2.48a1.44,1.44,0,0,0,1.3,0l4-2.34C619.84,630.53,619.86,630.19,619.51,630Z" transform="translate(-229.35 -428.38)"/><path class="cls-12" d="M626.15,633.82l-4.29-2.48a1.44,1.44,0,0,0-1.3,0l-4,2.34c-.37.22-.4.56-.05.76l4.29,2.48a1.44,1.44,0,0,0,1.3,0l4-2.34C626.47,634.36,626.49,634,626.15,633.82Z" transform="translate(-229.35 -428.38)"/><path class="cls-12" d="M632.78,637.65l-4.29-2.48a1.44,1.44,0,0,0-1.3,0l-4,2.34c-.37.22-.4.56-.05.76l4.29,2.48a1.44,1.44,0,0,0,1.3,0l4-2.34C633.1,638.19,633.12,637.85,632.78,637.65Z" transform="translate(-229.35 -428.38)"/><path class="cls-12" d="M579.42,585.67l-12.64-7.3a1.44,1.44,0,0,0-1.3,0l-4,2.34c-.37.22-.4.56-.05.76l12.64,7.3a1.44,1.44,0,0,0,1.3,0l4-2.34C579.74,586.2,579.76,585.87,579.42,585.67Z" transform="translate(-229.35 -428.38)"/><path class="cls-12" d="M660.88,632.7l-12.64-7.3a1.44,1.44,0,0,0-1.3,0l-4,2.34c-.37.22-.4.56-.05.76l12.64,7.3a1.44,1.44,0,0,0,1.3,0l4-2.34C661.2,633.23,661.22,632.9,660.88,632.7Z" transform="translate(-229.35 -428.38)"/><path class="cls-12" d="M648.58,617.59l-4.29-2.48a1.44,1.44,0,0,0-1.3,0l-4.77,2.79c-.37.22-.4.56-.05.76l4.29,2.48a1.43,1.43,0,0,0,1.3,0l4.77-2.79C648.9,618.12,648.92,617.79,648.58,617.59Z" transform="translate(-229.35 -428.38)"/><path class="cls-12" d="M600.43,589.79l-6.87-4a1.44,1.44,0,0,0-1.3,0l-4.77,2.79c-.37.22-.4.56-.05.76l6.87,4a1.44,1.44,0,0,0,1.3,0l4.77-2.79C600.75,590.32,600.77,590,600.43,589.79Z" transform="translate(-229.35 -428.38)"/><path class="cls-12" d="M642.19,613.9l-6.87-4a1.44,1.44,0,0,0-1.3,0l-4.77,2.79c-.37.22-.4.56-.05.76l6.87,4a1.44,1.44,0,0,0,1.3,0l4.77-2.79C642.51,614.44,642.54,614.1,642.19,613.9Z" transform="translate(-229.35 -428.38)"/><path class="cls-12" d="M610,595.31l-6.87-4a1.44,1.44,0,0,0-1.3,0l-4.77,2.79c-.37.22-.4.56-.05.76l6.87,4a1.44,1.44,0,0,0,1.3,0l4.77-2.79C610.31,595.85,610.34,595.51,610,595.31Z" transform="translate(-229.35 -428.38)"/><path class="cls-12" d="M597,595l29.85,17.24a1.43,1.43,0,0,0,1.3,0l4.87-2.84c.35-.2.33-.54,0-.76l-29.85-17.24Z" transform="translate(-229.35 -428.38)"/><path class="cls-12" d="M660.79,628.2l4.78,2.76a1.18,1.18,0,0,0,1.07,0l2-1.14c.31-.18.33-.46,0-.62l-4.78-2.76a1.18,1.18,0,0,0-1.07,0l-2,1.14C660.53,627.76,660.51,628,660.79,628.2Z" transform="translate(-229.35 -428.38)"/><path class="cls-12" d="M654.11,624.34l4.78,2.76a1.18,1.18,0,0,0,1.07,0l2-1.14c.31-.18.33-.46,0-.62l-4.78-2.76a1.18,1.18,0,0,0-1.07,0l-2,1.14C653.84,623.9,653.82,624.17,654.11,624.34Z" transform="translate(-229.35 -428.38)"/><path class="cls-12" d="M647.47,620.51l4.78,2.76a1.18,1.18,0,0,0,1.07,0l2-1.14c.31-.18.33-.46,0-.62l-4.78-2.76a1.18,1.18,0,0,0-1.07,0l-2,1.14C647.21,620.07,647.19,620.35,647.47,620.51Z" transform="translate(-229.35 -428.38)"/><path class="cls-12" d="M650.66,626.35l4.78,2.76a1.18,1.18,0,0,0,1.07,0l2-1.14c.31-.18.33-.46,0-.62l-4.78-2.76a1.18,1.18,0,0,0-1.07,0l-2,1.14C650.4,625.91,650.38,626.19,650.66,626.35Z" transform="translate(-229.35 -428.38)"/></g></g></g><g class="cls-23"><path class="cls-12" d="M484.52,630.15l-4.25-2.46c-.34-.2-.3-.54.1-.77l5-2.9a1.48,1.48,0,0,1,1.33-.06l4.25,2.46c.34.2.3.54-.1.77l-5,2.9A1.48,1.48,0,0,1,484.52,630.15Z" transform="translate(-229.35 -428.38)"/><path class="cls-12" d="M491.08,633.95l-4.25-2.46c-.34-.2-.3-.54.1-.77l5-2.9a1.48,1.48,0,0,1,1.33-.06l4.25,2.46c.34.2.3.54-.1.77l-5,2.9A1.48,1.48,0,0,1,491.08,633.95Z" transform="translate(-229.35 -428.38)"/><path class="cls-12" d="M497.65,637.74l-4.25-2.46c-.34-.2-.3-.54.1-.77l5-2.9a1.48,1.48,0,0,1,1.33-.06L504.1,634c.34.2.3.54-.1.77l-5,2.9A1.48,1.48,0,0,1,497.65,637.74Z" transform="translate(-229.35 -428.38)"/><path class="cls-12" d="M506.73,634.61l-4.25-2.45c-.34-.2-.3-.54.1-.77l4.21-2.43a1.48,1.48,0,0,1,1.33-.06l4.25,2.46c.34.2.3.54-.1.77l-4.21,2.43A1.48,1.48,0,0,1,506.73,634.61Z" transform="translate(-229.35 -428.38)"/><path class="cls-12" d="M513.3,638.4,509,635.94c-.34-.2-.3-.54.1-.77l4.21-2.43a1.48,1.48,0,0,1,1.33-.06l4.25,2.46c.34.2.3.54-.1.77l-4.21,2.43A1.48,1.48,0,0,1,513.3,638.4Z" transform="translate(-229.35 -428.38)"/><path class="cls-12" d="M519.87,642.19l-4.25-2.46c-.34-.2-.3-.54.1-.77l4.21-2.43a1.48,1.48,0,0,1,1.33-.06l4.25,2.46c.34.2.3.54-.1.77l-4.21,2.43A1.48,1.48,0,0,1,519.87,642.19Z" transform="translate(-229.35 -428.38)"/><path class="cls-12" d="M526.43,646l-4.25-2.46c-.34-.2-.3-.54.1-.77l4.21-2.43a1.48,1.48,0,0,1,1.33-.06l4.25,2.46c.34.2.3.54-.1.77l-4.21,2.43A1.48,1.48,0,0,1,526.43,646Z" transform="translate(-229.35 -428.38)"/><path class="cls-12" d="M533,649.77l-4.25-2.46c-.34-.2-.3-.54.1-.77l4.21-2.43a1.48,1.48,0,0,1,1.33-.06l4.25,2.45c.34.2.3.54-.1.77l-4.21,2.43A1.48,1.48,0,0,1,533,649.77Z" transform="translate(-229.35 -428.38)"/><path class="cls-12" d="M539.57,653.56l-4.25-2.46c-.34-.2-.3-.54.1-.77l4.21-2.43a1.48,1.48,0,0,1,1.33-.06l4.25,2.45c.34.2.3.54-.1.77l-4.21,2.43A1.48,1.48,0,0,1,539.57,653.56Z" transform="translate(-229.35 -428.38)"/><path class="cls-12" d="M546.13,657.35l-4.25-2.45c-.34-.2-.3-.54.1-.77l4.21-2.43a1.48,1.48,0,0,1,1.33-.06l4.25,2.45c.34.2.3.54-.1.77l-4.21,2.43A1.48,1.48,0,0,1,546.13,657.35Z" transform="translate(-229.35 -428.38)"/><path class="cls-12" d="M552.7,661.15l-4.25-2.45c-.34-.2-.3-.54.1-.77l4.21-2.43a1.48,1.48,0,0,1,1.33-.06l4.25,2.45c.34.2.3.54-.1.77L554,661.09A1.48,1.48,0,0,1,552.7,661.15Z" transform="translate(-229.35 -428.38)"/><path class="cls-12" d="M559.27,664.94,555,662.48c-.34-.2-.3-.54.1-.77l4.21-2.43a1.48,1.48,0,0,1,1.33-.06l4.25,2.45c.34.2.3.54-.1.77l-4.21,2.43A1.48,1.48,0,0,1,559.27,664.94Z" transform="translate(-229.35 -428.38)"/><path class="cls-12" d="M565.83,668.73l-4.25-2.45c-.34-.2-.3-.54.1-.77l4.21-2.43a1.48,1.48,0,0,1,1.33-.06l4.25,2.46c.34.2.3.54-.1.77l-4.21,2.43A1.48,1.48,0,0,1,565.83,668.73Z" transform="translate(-229.35 -428.38)"/><path class="cls-12" d="M516.41,632.81l-4.25-2.46c-.34-.2-.3-.54.1-.77l4.21-2.43a1.48,1.48,0,0,1,1.33-.06l4.25,2.46c.34.2.3.54-.1.77l-4.21,2.43A1.48,1.48,0,0,1,516.41,632.81Z" transform="translate(-229.35 -428.38)"/><path class="cls-12" d="M509.74,629l-4.25-2.46c-.34-.2-.3-.54.1-.77l4.21-2.43a1.48,1.48,0,0,1,1.33-.06l4.25,2.46c.34.2.3.54-.1.77l-4.21,2.43A1.48,1.48,0,0,1,509.74,629Z" transform="translate(-229.35 -428.38)"/><path class="cls-12" d="M503.07,625.11l-9.16-5.29c-.34-.2-.3-.54.1-.77l4.21-2.43a1.48,1.48,0,0,1,1.33-.06l9.16,5.29c.34.2.3.54-.1.77l-4.21,2.43A1.48,1.48,0,0,1,503.07,625.11Z" transform="translate(-229.35 -428.38)"/><path class="cls-12" d="M507.74,620.42l-7.43-4.29c-.34-.2-.3-.54.1-.77l4.21-2.43a1.48,1.48,0,0,1,1.33-.06l7.43,4.29c.34.2.3.54-.1.77l-4.21,2.43A1.48,1.48,0,0,1,507.74,620.42Z" transform="translate(-229.35 -428.38)"/><path class="cls-12" d="M523,636.6l-4.25-2.46c-.34-.2-.3-.54.1-.77l4.21-2.43a1.48,1.48,0,0,1,1.33-.06l4.25,2.45c.34.2.3.54-.1.77l-4.21,2.43A1.48,1.48,0,0,1,523,636.6Z" transform="translate(-229.35 -428.38)"/><path class="cls-12" d="M529.54,640.39l-4.25-2.46c-.34-.2-.3-.54.1-.77l4.21-2.43a1.48,1.48,0,0,1,1.33-.06l4.25,2.46c.34.2.3.54-.1.77l-4.21,2.43A1.48,1.48,0,0,1,529.54,640.39Z" transform="translate(-229.35 -428.38)"/><path class="cls-12" d="M536.11,644.19l-4.25-2.45c-.34-.2-.3-.54.1-.77l4.21-2.43a1.48,1.48,0,0,1,1.33-.06l4.25,2.46c.34.2.3.54-.1.77l-4.21,2.43A1.48,1.48,0,0,1,536.11,644.19Z" transform="translate(-229.35 -428.38)"/><path class="cls-12" d="M542.68,648l-4.25-2.46c-.34-.2-.3-.54.1-.77l4.21-2.43a1.48,1.48,0,0,1,1.33-.06l4.25,2.46c.34.2.3.54-.1.77L544,647.92A1.48,1.48,0,0,1,542.68,648Z" transform="translate(-229.35 -428.38)"/><path class="cls-12" d="M549.24,651.77,545,649.31c-.34-.2-.3-.54.1-.77l4.21-2.43a1.48,1.48,0,0,1,1.33-.06l4.25,2.46c.34.2.3.54-.1.77l-4.21,2.43A1.48,1.48,0,0,1,549.24,651.77Z" transform="translate(-229.35 -428.38)"/><path class="cls-12" d="M555.81,655.56l-4.25-2.46c-.34-.2-.3-.54.1-.77l4.21-2.43a1.48,1.48,0,0,1,1.33-.06l4.25,2.46c.34.2.3.54-.1.77l-4.21,2.43A1.48,1.48,0,0,1,555.81,655.56Z" transform="translate(-229.35 -428.38)"/><path class="cls-12" d="M562.38,659.35l-4.25-2.46c-.34-.2-.3-.54.1-.77l4.21-2.43a1.48,1.48,0,0,1,1.33-.06l4.25,2.45c.34.2.3.54-.1.77l-4.21,2.43A1.48,1.48,0,0,1,562.38,659.35Z" transform="translate(-229.35 -428.38)"/><path class="cls-12" d="M568.94,663.14l-4.25-2.46c-.34-.2-.3-.54.1-.77l4.21-2.43a1.48,1.48,0,0,1,1.33-.06l4.25,2.45c.34.2.3.54-.1.77l-4.21,2.43A1.48,1.48,0,0,1,568.94,663.14Z" transform="translate(-229.35 -428.38)"/><path class="cls-12" d="M575.51,666.93l-4.25-2.45c-.34-.2-.3-.54.1-.77l4.21-2.43a1.48,1.48,0,0,1,1.33-.06l4.25,2.45c.34.2.3.54-.1.77l-4.21,2.43A1.48,1.48,0,0,1,575.51,666.93Z" transform="translate(-229.35 -428.38)"/><path class="cls-12" d="M587.18,673.67l-9.28-5.36c-.34-.2-.3-.54.1-.77l4.21-2.43a1.48,1.48,0,0,1,1.33-.06l9.28,5.36c.34.2.3.54-.1.77l-4.21,2.43A1.48,1.48,0,0,1,587.18,673.67Z" transform="translate(-229.35 -428.38)"/><path class="cls-12" d="M600,666.29l-7.83-4.52c-.34-.2-.3-.54.1-.77l4.21-2.43a1.48,1.48,0,0,1,1.33-.06l7.83,4.52c.34.2.3.54-.1.77l-4.21,2.43A1.48,1.48,0,0,1,600,666.29Z" transform="translate(-229.35 -428.38)"/><path class="cls-12" d="M534.48,635.86l-4.25-2.46c-.34-.2-.3-.54.1-.77l4.21-2.43a1.48,1.48,0,0,1,1.33-.06l4.25,2.46c.34.2.3.54-.1.77l-4.21,2.43A1.48,1.48,0,0,1,534.48,635.86Z" transform="translate(-229.35 -428.38)"/><path class="cls-12" d="M527.75,632l-4.25-2.45c-.34-.2-.3-.54.1-.77l4.21-2.43a1.48,1.48,0,0,1,1.33-.06l4.25,2.46c.34.2.3.54-.1.77l-4.21,2.43A1.48,1.48,0,0,1,527.75,632Z" transform="translate(-229.35 -428.38)"/><path class="cls-12" d="M521,628.09l-4.25-2.45c-.34-.2-.3-.54.1-.77l4.21-2.43a1.48,1.48,0,0,1,1.33-.06l4.25,2.45c.34.2.3.54-.1.77L522.35,628A1.48,1.48,0,0,1,521,628.09Z" transform="translate(-229.35 -428.38)"/><path class="cls-12" d="M514.29,624.2,510,621.75c-.34-.2-.3-.54.1-.77l4.21-2.43a1.48,1.48,0,0,1,1.33-.06l4.25,2.46c.34.2.3.54-.1.77l-4.21,2.43A1.48,1.48,0,0,1,514.29,624.2Z" transform="translate(-229.35 -428.38)"/><path class="cls-12" d="M541,639.65l-4.25-2.46c-.34-.2-.3-.54.1-.77L541.1,634a1.48,1.48,0,0,1,1.33-.06l4.25,2.46c.34.2.3.54-.1.77l-4.21,2.43A1.48,1.48,0,0,1,541,639.65Z" transform="translate(-229.35 -428.38)"/><path class="cls-12" d="M547.61,643.44,543.36,641c-.34-.2-.3-.54.1-.77l4.21-2.43a1.48,1.48,0,0,1,1.33-.06l4.25,2.46c.34.2.3.54-.1.77l-4.21,2.43A1.48,1.48,0,0,1,547.61,643.44Z" transform="translate(-229.35 -428.38)"/><path class="cls-12" d="M554.18,647.23l-4.25-2.46c-.34-.2-.3-.54.1-.77l4.21-2.43a1.48,1.48,0,0,1,1.33-.06l4.25,2.45c.34.2.3.54-.1.77l-4.21,2.43A1.48,1.48,0,0,1,554.18,647.23Z" transform="translate(-229.35 -428.38)"/><path class="cls-12" d="M560.74,651l-4.25-2.46c-.34-.2-.3-.54.1-.77l4.21-2.43a1.48,1.48,0,0,1,1.33-.06l4.25,2.45c.34.2.3.54-.1.77L562.07,651A1.48,1.48,0,0,1,560.74,651Z" transform="translate(-229.35 -428.38)"/><path class="cls-12" d="M567.31,654.82l-4.25-2.45c-.34-.2-.3-.54.1-.77l4.21-2.43a1.48,1.48,0,0,1,1.33-.06l4.25,2.45c.34.2.3.54-.1.77l-4.21,2.43A1.48,1.48,0,0,1,567.31,654.82Z" transform="translate(-229.35 -428.38)"/><path class="cls-12" d="M573.87,658.61l-4.25-2.46c-.34-.2-.3-.54.1-.77l4.21-2.43a1.48,1.48,0,0,1,1.33-.06l4.25,2.45c.34.2.3.54-.1.77l-4.21,2.43A1.48,1.48,0,0,1,573.87,658.61Z" transform="translate(-229.35 -428.38)"/><path class="cls-12" d="M580.44,662.4l-4.25-2.46c-.34-.2-.3-.54.1-.77l4.21-2.43a1.48,1.48,0,0,1,1.33-.06l4.25,2.45c.34.2.3.54-.1.77l-4.21,2.43A1.48,1.48,0,0,1,580.44,662.4Z" transform="translate(-229.35 -428.38)"/><path class="cls-12" d="M587,666.19l-4.25-2.45c-.34-.2-.3-.54.1-.77l4.21-2.43a1.48,1.48,0,0,1,1.33-.06l4.25,2.45c.34.2.3.54-.1.77l-4.21,2.43A1.48,1.48,0,0,1,587,666.19Z" transform="translate(-229.35 -428.38)"/><path class="cls-12" d="M593.57,670l-4.25-2.45c-.34-.2-.3-.54.1-.77l4.21-2.43a1.48,1.48,0,0,1,1.33-.06l4.25,2.45c.34.2.3.54-.1.77l-4.21,2.43A1.48,1.48,0,0,1,593.57,670Z" transform="translate(-229.35 -428.38)"/><path class="cls-12" d="M531,626.48,526.77,624c-.34-.2-.3-.54.1-.77l4.21-2.43a1.48,1.48,0,0,1,1.33-.06l4.25,2.46c.34.2.3.54-.1.77l-4.21,2.43A1.48,1.48,0,0,1,531,626.48Z" transform="translate(-229.35 -428.38)"/><path class="cls-12" d="M524.48,622.71l-4.25-2.46c-.34-.2-.3-.54.1-.77l4.21-2.43a1.48,1.48,0,0,1,1.33-.06l4.25,2.45c.34.2.3.54-.1.77l-4.21,2.43A1.48,1.48,0,0,1,524.48,622.71Z" transform="translate(-229.35 -428.38)"/><path class="cls-12" d="M517.95,618.94l-4.25-2.45c-.34-.2-.3-.54.1-.77l4.21-2.43a1.48,1.48,0,0,1,1.33-.06l4.25,2.46c.34.2.3.54-.1.77l-4.21,2.43A1.48,1.48,0,0,1,517.95,618.94Z" transform="translate(-229.35 -428.38)"/><path class="cls-12" d="M511.42,615.17l-4.25-2.45c-.34-.2-.3-.54.1-.77l4.21-2.43a1.48,1.48,0,0,1,1.33-.06l4.25,2.45c.34.2.3.54-.1.77l-4.21,2.43A1.48,1.48,0,0,1,511.42,615.17Z" transform="translate(-229.35 -428.38)"/><path class="cls-12" d="M518.13,611.29l-4.25-2.46c-.34-.2-.3-.54.1-.77l1.39-.8a1.48,1.48,0,0,1,1.33-.06l4.25,2.46c.34.2.3.54-.1.77l-1.39.8A1.48,1.48,0,0,1,518.13,611.29Z" transform="translate(-229.35 -428.38)"/><path class="cls-12" d="M526.66,616.21l-4.25-2.46c-.34-.2-.3-.54.1-.77l1.39-.8a1.48,1.48,0,0,1,1.33-.06l4.25,2.46c.34.2.3.54-.1.77l-1.39.8A1.48,1.48,0,0,1,526.66,616.21Z" transform="translate(-229.35 -428.38)"/><path class="cls-12" d="M533.17,620l-4.25-2.46c-.34-.2-.3-.54.1-.77l1.39-.8a1.48,1.48,0,0,1,1.33-.06l4.25,2.45c.34.2.3.54-.1.77l-1.39.8A1.48,1.48,0,0,1,533.17,620Z" transform="translate(-229.35 -428.38)"/><path class="cls-12" d="M539.67,623.72l-4.25-2.45c-.34-.2-.3-.54.1-.77l1.39-.8a1.48,1.48,0,0,1,1.33-.06l4.25,2.46c.34.2.3.54-.1.77l-1.39.8A1.48,1.48,0,0,1,539.67,623.72Z" transform="translate(-229.35 -428.38)"/><path class="cls-12" d="M546.18,627.48,541.93,625c-.34-.2-.3-.54.1-.77l1.39-.8a1.48,1.48,0,0,1,1.33-.06l4.25,2.46c.34.2.3.54-.1.77l-1.39.8A1.48,1.48,0,0,1,546.18,627.48Z" transform="translate(-229.35 -428.38)"/><path class="cls-12" d="M582.51,648.45,578.26,646c-.34-.2-.3-.54.1-.77l1.39-.8a1.48,1.48,0,0,1,1.33-.06l4.25,2.46c.34.2.3.54-.1.77l-1.39.8A1.48,1.48,0,0,1,582.51,648.45Z" transform="translate(-229.35 -428.38)"/><path class="cls-12" d="M589,652.21l-4.25-2.46c-.34-.2-.3-.54.1-.77l1.39-.8a1.48,1.48,0,0,1,1.33-.06l4.25,2.46c.34.2.3.54-.1.77l-1.39.8A1.48,1.48,0,0,1,589,652.21Z" transform="translate(-229.35 -428.38)"/><path class="cls-12" d="M595.52,656l-4.25-2.46c-.34-.2-.3-.54.1-.77l1.39-.8a1.48,1.48,0,0,1,1.33-.06l4.25,2.46c.34.2.3.54-.1.77l-1.39.8A1.48,1.48,0,0,1,595.52,656Z" transform="translate(-229.35 -428.38)"/><path class="cls-12" d="M602,659.72l-4.25-2.45c-.34-.2-.3-.54.1-.77l1.39-.8a1.48,1.48,0,0,1,1.33-.06l4.25,2.46c.34.2.3.54-.1.77l-1.39.8A1.48,1.48,0,0,1,602,659.72Z" transform="translate(-229.35 -428.38)"/><path class="cls-12" d="M537.58,630.27l-4.25-2.46c-.34-.2-.3-.54.1-.77l4.21-2.43a1.48,1.48,0,0,1,1.33-.06l4.25,2.46c.34.2.3.54-.1.77l-4.21,2.43A1.48,1.48,0,0,1,537.58,630.27Z" transform="translate(-229.35 -428.38)"/><path class="cls-12" d="M544.15,634.07l-4.25-2.46c-.34-.2-.3-.54.1-.77l4.21-2.43a1.48,1.48,0,0,1,1.33-.06l4.25,2.45c.34.2.3.54-.1.77L545.48,634A1.48,1.48,0,0,1,544.15,634.07Z" transform="translate(-229.35 -428.38)"/><path class="cls-12" d="M550.72,637.86l-4.25-2.46c-.34-.2-.3-.54.1-.77l4.21-2.43a1.48,1.48,0,0,1,1.33-.06l4.25,2.46c.34.2.3.54-.1.77L552,637.8A1.48,1.48,0,0,1,550.72,637.86Z" transform="translate(-229.35 -428.38)"/><path class="cls-12" d="M557.28,641.65,553,639.19c-.34-.2-.3-.54.1-.77l4.21-2.43a1.48,1.48,0,0,1,1.33-.06l4.25,2.46c.34.2.3.54-.1.77l-4.21,2.43A1.48,1.48,0,0,1,557.28,641.65Z" transform="translate(-229.35 -428.38)"/><path class="cls-12" d="M563.85,645.44,559.6,643c-.34-.2-.3-.54.1-.77l4.21-2.43a1.48,1.48,0,0,1,1.33-.06l4.25,2.46c.34.2.3.54-.1.77l-4.21,2.43A1.48,1.48,0,0,1,563.85,645.44Z" transform="translate(-229.35 -428.38)"/><path class="cls-12" d="M570.42,649.23l-4.25-2.46c-.34-.2-.3-.54.1-.77l4.21-2.43a1.48,1.48,0,0,1,1.33-.06l4.25,2.46c.34.2.3.54-.1.77l-4.21,2.43A1.48,1.48,0,0,1,570.42,649.23Z" transform="translate(-229.35 -428.38)"/><path class="cls-12" d="M577,653l-4.25-2.45c-.34-.2-.3-.54.1-.77l4.21-2.43a1.48,1.48,0,0,1,1.33-.06l4.25,2.46c.34.2.3.54-.1.77L578.32,653A1.48,1.48,0,0,1,577,653Z" transform="translate(-229.35 -428.38)"/><path class="cls-12" d="M583.55,656.81l-4.25-2.46c-.34-.2-.3-.54.1-.77l4.21-2.43a1.48,1.48,0,0,1,1.33-.06l4.25,2.45c.34.2.3.54-.1.77l-4.21,2.43A1.48,1.48,0,0,1,583.55,656.81Z" transform="translate(-229.35 -428.38)"/><path class="cls-12" d="M590.12,660.6l-4.25-2.46c-.34-.2-.3-.54.1-.77l4.21-2.43a1.48,1.48,0,0,1,1.33-.06l4.25,2.45c.34.2.3.54-.1.77l-4.21,2.43A1.48,1.48,0,0,1,590.12,660.6Z" transform="translate(-229.35 -428.38)"/><path class="cls-12" d="M500,630.74l-12.52-7.23c-.34-.2-.3-.54.1-.77l4.21-2.43a1.48,1.48,0,0,1,1.33-.06l12.52,7.23c.34.2.3.54-.1.77l-4.21,2.43A1.48,1.48,0,0,1,500,630.74Z" transform="translate(-229.35 -428.38)"/><path class="cls-12" d="M580.71,677.32l-12.52-7.23c-.34-.2-.3-.54.1-.77l4.21-2.43a1.48,1.48,0,0,1,1.33-.06l12.52,7.23c.34.2.3.54-.1.77L582,677.26A1.48,1.48,0,0,1,580.71,677.32Z" transform="translate(-229.35 -428.38)"/><path class="cls-12" d="M554.45,670.53l-4.25-2.45c-.34-.2-.3-.54.1-.77l5-2.9a1.48,1.48,0,0,1,1.33-.06l4.25,2.45c.34.2.3.54-.1.77l-5,2.9A1.48,1.48,0,0,1,554.45,670.53Z" transform="translate(-229.35 -428.38)"/><path class="cls-12" d="M506.77,643l-6.8-3.93c-.34-.2-.3-.54.1-.77l5-2.9a1.48,1.48,0,0,1,1.33-.06l6.8,3.93c.34.2.3.54-.1.77l-5,2.9A1.48,1.48,0,0,1,506.77,643Z" transform="translate(-229.35 -428.38)"/><path class="cls-12" d="M548.13,666.88l-6.8-3.93c-.34-.2-.3-.54.1-.77l5-2.9a1.48,1.48,0,0,1,1.33-.06l6.8,3.93c.34.2.3.54-.1.77l-5,2.9A1.48,1.48,0,0,1,548.13,666.88Z" transform="translate(-229.35 -428.38)"/><path class="cls-12" d="M516.24,648.47l-6.8-3.93c-.34-.2-.3-.54.1-.77l5-2.9a1.48,1.48,0,0,1,1.33-.06l6.8,3.93c.34.2.3.54-.1.77l-5,2.9A1.48,1.48,0,0,1,516.24,648.47Z" transform="translate(-229.35 -428.38)"/><path class="cls-12" d="M515.93,640.85l29.57,17.07a.4.4,0,0,1,0,.77l-5.12,3a1.47,1.47,0,0,1-1.33,0l-29.57-17.07Z" transform="translate(-229.35 -428.38)"/><path class="cls-12" d="M572.81,677.41l4.74,2.73c.28.16.24.44-.08.63L575.41,682a1.21,1.21,0,0,1-1.09,0l-4.74-2.73c-.28-.16-.24-.44.08-.63l2.05-1.19A1.21,1.21,0,0,1,572.81,677.41Z" transform="translate(-229.35 -428.38)"/><path class="cls-12" d="M566.18,673.58l4.74,2.73c.28.16.24.44-.08.63l-2.05,1.19a1.21,1.21,0,0,1-1.09,0L563,675.44c-.28-.16-.24-.44.08-.63l2.05-1.19A1.21,1.21,0,0,1,566.18,673.58Z" transform="translate(-229.35 -428.38)"/><path class="cls-12" d="M559.62,669.79l4.74,2.73c.28.16.24.44-.08.63l-2.05,1.19a1.21,1.21,0,0,1-1.09,0l-4.74-2.73c-.28-.16-.24-.44.08-.63l2.05-1.19A1.21,1.21,0,0,1,559.62,669.79Z" transform="translate(-229.35 -428.38)"/><path class="cls-12" d="M569.81,671.49l4.74,2.73c.28.16.24.44-.08.63L572.42,676a1.21,1.21,0,0,1-1.09,0l-4.74-2.73c-.28-.16-.24-.44.08-.63l2.05-1.19A1.21,1.21,0,0,1,569.81,671.49Z" transform="translate(-229.35 -428.38)"/></g><path class="cls-9" d="M636.8,569.32a2,2,0,0,1-1-.28,2.9,2.9,0,0,1-1.39-2.93,1.47,1.47,0,0,1,.83-1.06,1.76,1.76,0,0,1,1.58.17,2.9,2.9,0,0,1,1.39,2.93,1.42,1.42,0,0,1-1.42,1.17Zm-1-3.93a1,1,0,0,0-.41.08,1,1,0,0,0-.57.74,2.42,2.42,0,0,0,1.17,2.43,1.31,1.31,0,0,0,1.17.14,1,1,0,0,0,.57-.74,2.42,2.42,0,0,0-1.17-2.43A1.55,1.55,0,0,0,635.84,565.39Z" transform="translate(-229.35 -428.38)"/><path class="cls-9" d="M642.22,572.45a2,2,0,0,1-1-.28,2.9,2.9,0,0,1-1.39-2.93,1.47,1.47,0,0,1,.83-1.06,1.76,1.76,0,0,1,1.58.17,2.9,2.9,0,0,1,1.39,2.93,1.42,1.42,0,0,1-1.42,1.17Zm-1-3.93a1,1,0,0,0-.41.08,1,1,0,0,0-.57.74,2.42,2.42,0,0,0,1.17,2.43,1.31,1.31,0,0,0,1.17.14,1,1,0,0,0,.57-.74,2.42,2.42,0,0,0-1.17-2.43A1.54,1.54,0,0,0,641.26,568.51Z" transform="translate(-229.35 -428.38)"/><path class="cls-9" d="M648.83,574.35a1.29,1.29,0,0,1-2.07.75,2.66,2.66,0,0,1-1.28-2.68,1.29,1.29,0,0,1,2.07-.75A2.66,2.66,0,0,1,648.83,574.35Z" transform="translate(-229.35 -428.38)"/><polygon class="cls-9" points="315.66 86.22 312.77 84.55 312.99 83.21 315.89 84.88 315.66 86.22"/><polygon class="cls-9" points="319.87 88.65 316.98 86.98 317.2 85.64 320.1 87.31 319.87 88.65"/><polygon class="cls-9" points="311.5 83.81 305.15 80.15 305.37 78.81 311.72 82.47 311.5 83.81"/><polygon class="cls-9" points="312.3 109.08 307.45 106.28 307.64 105.16 312.48 107.96 312.3 109.08"/><polygon class="cls-9" points="316.43 111.47 314.01 110.07 314.2 108.95 316.62 110.35 316.43 111.47"/><polygon class="cls-9" points="313.29 112.53 311.22 111.34 311.41 110.22 313.47 111.41 313.29 112.53"/><polygon class="cls-9" points="316.74 114.53 314.32 113.13 314.51 112.01 316.93 113.41 316.74 114.53"/><polygon class="cls-9" points="320.3 119.46 310.78 113.97 310.97 112.84 320.49 118.34 320.3 119.46"/><polygon class="cls-9" points="312.05 141.45 302.52 135.96 302.71 134.84 312.24 140.33 312.05 141.45"/><polygon class="cls-9" points="315.71 143.57 313.29 142.17 313.48 141.05 315.9 142.45 315.71 143.57"/><polygon class="cls-9" points="312.4 117.78 310.34 116.59 310.53 115.47 312.59 116.66 312.4 117.78"/><polygon class="cls-9" points="315.86 119.78 313.44 118.38 313.63 117.26 316.05 118.66 315.86 119.78"/><polygon class="cls-9" points="315.13 122.24 309.9 119.22 310.09 118.1 315.32 121.12 315.13 122.24"/><polygon class="cls-9" points="318.64 124.27 316.22 122.87 316.4 121.75 318.83 123.14 318.64 124.27"/><polygon class="cls-9" points="322.16 126.3 319.74 124.9 319.93 123.78 322.35 125.18 322.16 126.3"/><polygon class="cls-9" points="327.85 129.58 323.26 126.93 323.45 125.81 328.03 128.46 327.85 129.58"/><polygon class="cls-9" points="324.22 133.25 321.79 131.85 321.98 130.73 324.4 132.13 324.22 133.25"/><polygon class="cls-9" points="329.9 136.53 325.32 133.88 325.5 132.76 330.09 135.41 329.9 136.53"/><polygon class="cls-9" points="311.44 125.87 309.02 124.47 309.21 123.35 311.63 124.75 311.44 125.87"/><polygon class="cls-9" points="314.96 127.91 312.54 126.51 312.73 125.39 315.15 126.78 314.96 127.91"/><polygon class="cls-9" points="320.65 131.19 316.06 128.54 316.25 127.42 320.84 130.07 320.65 131.19"/><polygon class="cls-9" points="328.1 132.61 325.68 131.21 325.86 130.09 328.29 131.49 328.1 132.61"/><polygon class="cls-9" points="331.62 134.64 329.2 133.24 329.38 132.12 331.81 133.52 331.62 134.64"/><polygon class="cls-9" points="337.31 137.92 332.72 135.28 332.91 134.16 337.49 136.8 337.31 137.92"/><polygon class="cls-9" points="319.5 145.76 317.08 144.36 317.27 143.24 319.69 144.64 319.5 145.76"/><polygon class="cls-9" points="325.19 149.04 320.6 146.39 320.79 145.27 325.37 147.92 325.19 149.04"/><polygon class="cls-9" points="310.56 131.13 308.14 129.73 308.32 128.61 310.75 130 310.56 131.13"/><polygon class="cls-9" points="316.25 134.41 311.66 131.76 311.85 130.64 316.43 133.29 316.25 134.41"/><polygon class="cls-9" points="322.14 150.16 319.72 148.76 319.91 147.64 322.33 149.04 322.14 150.16"/><polygon class="cls-9" points="327.83 153.44 323.24 150.8 323.43 149.68 328.01 152.32 327.83 153.44"/><polygon class="cls-9" points="327.55 123.65 325.12 122.25 325.31 121.13 327.74 122.53 327.55 123.65"/><polygon class="cls-9" points="323.88 121.53 321.46 120.13 321.65 119.01 324.07 120.41 323.88 121.53"/><polygon class="cls-9" points="333.23 126.93 328.65 124.28 328.83 123.16 333.42 125.81 333.23 126.93"/><polygon class="cls-9" points="311.64 123.11 309.46 121.85 309.65 120.72 311.83 121.99 311.64 123.11"/><polygon class="cls-9" points="318.13 126.85 312.81 123.78 313 122.66 318.32 125.73 318.13 126.85"/><polygon class="cls-9" points="324.61 130.59 319.3 127.53 319.49 126.41 324.8 129.47 324.61 130.59"/><polygon class="cls-9" points="336.6 128.87 334.41 127.61 334.6 126.49 336.79 127.75 336.6 128.87"/><polygon class="cls-9" points="343.08 132.62 337.77 129.55 337.96 128.43 343.27 131.5 343.08 132.62"/><polygon class="cls-9" points="349.57 136.36 344.25 133.29 344.44 132.17 349.75 135.24 349.57 136.36"/><polygon class="cls-9" points="313.94 130.19 308.63 127.13 308.81 126.01 314.13 129.07 313.94 130.19"/><polygon class="cls-9" points="316.74 131.81 315.11 130.87 315.3 129.75 316.93 130.69 316.74 131.81"/><polygon class="cls-9" points="319.55 133.43 317.92 132.49 318.1 131.37 319.74 132.31 319.55 133.43"/><polygon class="cls-9" points="324.74 136.43 320.72 134.11 320.91 132.99 324.93 135.31 324.74 136.43"/><polygon class="cls-9" points="330.56 131.15 328.92 130.2 329.11 129.08 330.75 130.03 330.56 131.15"/><polygon class="cls-9" points="335.75 134.14 331.73 131.82 331.92 130.7 335.94 133.02 335.75 134.14"/><polygon class="cls-9" points="336.84 134.77 332.82 132.45 333.01 131.33 337.03 133.65 336.84 134.77"/><polygon class="cls-9" points="315.46 149.19 310.23 146.16 310.41 145.04 315.65 148.07 315.46 149.19"/><polygon class="cls-9" points="318.97 151.21 316.54 149.81 316.73 148.69 319.15 150.09 318.97 151.21"/><polygon class="cls-9" points="322.49 153.24 320.06 151.84 320.25 150.72 322.68 152.12 322.49 153.24"/><polygon class="cls-9" points="328.17 156.53 323.59 153.88 323.77 152.76 328.36 155.41 328.17 156.53"/><polygon class="cls-9" points="331.81 158.63 329.39 157.23 329.57 156.11 332 157.5 331.81 158.63"/><polygon class="cls-9" points="337.49 161.91 332.91 159.26 333.1 158.14 337.68 160.79 337.49 161.91"/><polygon class="cls-9" points="320.06 157.6 317.63 156.2 317.82 155.08 320.24 156.48 320.06 157.6"/><polygon class="cls-9" points="325.74 160.88 321.15 158.24 321.34 157.12 325.93 159.76 325.74 160.88"/><polygon class="cls-9" points="307.4 150.29 304.98 148.9 305.16 147.78 307.59 149.17 307.4 150.29"/><polygon class="cls-9" points="310.92 152.33 308.5 150.93 308.69 149.81 311.11 151.21 310.92 152.33"/><polygon class="cls-9" points="316.61 155.61 312.02 152.96 312.21 151.84 316.79 154.49 316.61 155.61"/><polygon class="cls-9" points="311.97 150.05 309.79 148.79 309.97 147.67 312.16 148.93 311.97 150.05"/><polygon class="cls-9" points="318.45 153.8 313.14 150.73 313.33 149.61 318.64 152.68 318.45 153.8"/><polygon class="cls-9" points="324.94 157.54 319.63 154.47 319.81 153.35 325.13 156.42 324.94 157.54"/><polygon class="cls-9" points="305.61 152.14 300.3 149.07 300.48 147.95 305.8 151.02 305.61 152.14"/><polygon class="cls-9" points="308.41 153.76 306.78 152.82 306.97 151.7 308.6 152.64 308.41 153.76"/><polygon class="cls-9" points="311.22 155.38 309.59 154.44 309.77 153.32 311.41 154.26 311.22 155.38"/><polygon class="cls-9" points="316.41 158.38 312.39 156.06 312.58 154.94 316.6 157.26 316.41 158.38"/><polygon class="cls-9" points="317.5 159.01 313.49 156.69 313.67 155.57 317.69 157.89 317.5 159.01"/><polygon class="cls-9" points="308 142 306.37 141.06 306.56 139.94 308.19 140.88 308 142"/><polygon class="cls-9" points="313.19 145 309.18 142.68 309.37 141.56 313.38 143.88 313.19 145"/><polygon class="cls-9" points="318.5 148.06 314.48 145.74 314.67 144.62 318.68 146.94 318.5 148.06"/><polygon class="cls-9" points="338.93 165.62 336.51 164.22 336.7 163.1 339.12 164.5 338.93 165.62"/><polygon class="cls-9" points="344.62 168.9 340.03 166.25 340.22 165.13 344.8 167.78 344.62 168.9"/><polygon class="cls-9" points="329.98 160.45 325.97 158.13 326.16 157.01 330.17 159.33 329.98 160.45"/><polygon class="cls-9" points="335.29 163.51 331.27 161.2 331.46 160.08 335.48 162.39 335.29 163.51"/><polygon class="cls-9" points="305.16 130.89 303.53 129.95 303.72 128.83 305.35 129.77 305.16 130.89"/><polygon class="cls-9" points="310.36 133.89 306.34 131.57 306.53 130.45 310.54 132.77 310.36 133.89"/><polygon class="cls-9" points="315.66 136.95 311.64 134.63 311.83 133.51 315.85 135.83 315.66 136.95"/><path class="cls-9" d="M625.12,606.17a2.26,2.26,0,0,1-1.12-.33l-32.46-18.74a4.45,4.45,0,0,1-1.91-4.31l2.08-12.38a2.31,2.31,0,0,1,1.19-1.78,2,2,0,0,1,1.88.16l32.46,18.74a4.45,4.45,0,0,1,1.91,4.31l-2.08,12.38a2.3,2.3,0,0,1-1.19,1.78A1.75,1.75,0,0,1,625.12,606.17Zm-31.47-37.25a1.3,1.3,0,0,0-.56.12,1.86,1.86,0,0,0-.94,1.44l-2.08,12.38a4,4,0,0,0,1.69,3.84l32.46,18.74a1.55,1.55,0,0,0,1.45.14,1.86,1.86,0,0,0,.94-1.45l2.08-12.38a4,4,0,0,0-1.69-3.84l-32.46-18.74A1.8,1.8,0,0,0,593.66,568.92Z" transform="translate(-229.35 -428.38)"/><path class="cls-9" d="M621.56,627.45a2.25,2.25,0,0,1-1.12-.32L588,608.39a4.46,4.46,0,0,1-1.91-4.31l2.08-12.38a2.3,2.3,0,0,1,1.19-1.78,2,2,0,0,1,1.88.16l32.46,18.74a4.45,4.45,0,0,1,1.91,4.31L623.5,625.5a2.31,2.31,0,0,1-1.19,1.78A1.75,1.75,0,0,1,621.56,627.45Zm-.89-.72a1.55,1.55,0,0,0,1.45.14,1.86,1.86,0,0,0,.94-1.45L625.13,613a4,4,0,0,0-1.69-3.84L591,590.46a1.55,1.55,0,0,0-1.46-.14,1.86,1.86,0,0,0-.93,1.44l-2.08,12.38a4,4,0,0,0,1.69,3.84Z" transform="translate(-229.35 -428.38)"/><path class="cls-24" d="M594.46,585.77c.57.33,1.09.21,1.28-.31l3.78-10.34c.43-1.18,2.2-.11,2.57,1.55l2.33,10.41a3,3,0,0,0,1.3,1.86l.56.32c.54.31,1,.22,1.24-.23l.77-1.63c.48-1,2.07-.06,2.5,1.5h0a3,3,0,0,0,1.26,1.73l.49.28c.59.34,1.11.2,1.29-.35l.7-2.16c.4-1.22,2.17-.2,2.57,1.47l2.33,9.63a3,3,0,0,0,1.31,1.83Z" transform="translate(-229.35 -428.38)"/><path class="cls-9" d="M616.64,622.55a3.24,3.24,0,0,1-1.42-2l-2.33-9.63c-.25-1-1.08-1.81-1.66-1.84a.46.46,0,0,0-.48.38l-.7,2.16a1,1,0,0,1-.56.63,1.24,1.24,0,0,1-1.06-.15l-.49-.28a3.23,3.23,0,0,1-1.37-1.87,2.34,2.34,0,0,0-1.6-1.75.44.44,0,0,0-.48.29l-.77,1.63a.91.91,0,0,1-.55.5,1.26,1.26,0,0,1-1-.17l-.56-.32a3.25,3.25,0,0,1-1.4-2l-2.33-10.41a2.38,2.38,0,0,0-1.65-1.88.47.47,0,0,0-.49.35L592,606.54a.94.94,0,0,1-.56.59,1.25,1.25,0,0,1-1-.16l.23-.39a.8.8,0,0,0,.66.13.49.49,0,0,0,.29-.32L595.31,596a.9.9,0,0,1,.94-.65,2.78,2.78,0,0,1,2.07,2.23L600.65,608a2.8,2.8,0,0,0,1.19,1.72l.56.32a.85.85,0,0,0,.64.13.46.46,0,0,0,.28-.26l.77-1.63a.89.89,0,0,1,.93-.54,2.75,2.75,0,0,1,2,2.08,2.79,2.79,0,0,0,1.16,1.6l.49.28a.81.81,0,0,0,.67.12.5.5,0,0,0,.29-.34l.7-2.16a.91.91,0,0,1,.89-.69h0a2.75,2.75,0,0,1,2.08,2.18l2.33,9.63a2.79,2.79,0,0,0,1.2,1.69Z" transform="translate(-229.35 -428.38)"/><path class="cls-9" d="M603.62,558.37a2.84,2.84,0,0,1-1.42-.4l-25.37-14.65a4.52,4.52,0,0,1-2-4.86,2.71,2.71,0,0,1,1.54-1.87,2.6,2.6,0,0,1,2.32.23l25.38,14.65a4.52,4.52,0,0,1,2,4.86,2.7,2.7,0,0,1-1.54,1.87A2.37,2.37,0,0,1,603.62,558.37Zm-26.3-21.5a1.9,1.9,0,0,0-.73.14,2.26,2.26,0,0,0-1.27,1.56,4,4,0,0,0,1.74,4.35l25.38,14.65a2.15,2.15,0,0,0,1.92.2,2.26,2.26,0,0,0,1.27-1.56,4,4,0,0,0-1.74-4.35l-25.37-14.65A2.39,2.39,0,0,0,577.31,536.87Z" transform="translate(-229.35 -428.38)"/></g></g></svg>