<svg xmlns="http://www.w3.org/2000/svg" xmlns:xlink="http://www.w3.org/1999/xlink" viewBox="0 0 814.26 343.46"><defs><style>.cls-1{fill:none;}.cls-2{isolation:isolate;}.cls-3{fill:#fff;}.cls-4{fill:url(#Áåçûìÿííûé_ãðàäèåíò_18);}.cls-5{fill:url(#Áåçûìÿííûé_ãðàäèåíò_28);}.cls-6{fill:url(#Áåçûìÿííûé_ãðàäèåíò_28-2);}.cls-7{fill:#0c0f38;}.cls-7,.cls-8{opacity:0.8;}.cls-10,.cls-12,.cls-8{fill:#d4088c;}.cls-10,.cls-8,.cls-9{mix-blend-mode:lighten;}.cls-20,.cls-9{fill:#6ee8fc;}.cls-11{fill:#6ee1f8;}.cls-13{fill:url(#Áåçûìÿííûé_ãðàäèåíò_6);}.cls-14{fill:#3a9bd5;}.cls-15{fill:url(#Áåçûìÿííûé_ãðàäèåíò_14);}.cls-16{fill:url(#Áåçûìÿííûé_ãðàäèåíò_3);}.cls-17{fill:url(#Áåçûìÿííûé_ãðàäèåíò_6-2);}.cls-18{fill:url(#Áåçûìÿííûé_ãðàäèåíò_3-2);}.cls-19{fill:url(#Áåçûìÿííûé_ãðàäèåíò_103);}.cls-21{opacity:0.11;}.cls-22{clip-path:url(#clip-path);}.cls-23{fill:url(#Áåçûìÿííûé_ãðàäèåíò_21);}.cls-24{fill:url(#Áåçûìÿííûé_ãðàäèåíò_29);}.cls-25{fill:url(#Áåçûìÿííûé_ãðàäèåíò_29-2);}.cls-26{fill:url(#Áåçûìÿííûé_ãðàäèåíò_29-3);}.cls-27{fill:url(#Áåçûìÿííûé_ãðàäèåíò_29-4);}.cls-28{fill:url(#Áåçûìÿííûé_ãðàäèåíò_29-5);}.cls-29{opacity:0.5;}</style><linearGradient id="Áåçûìÿííûé_ãðàäèåíò_18" x1="735.09" y1="1401.66" x2="782.11" y2="1401.66" gradientTransform="translate(350.89 1681.07) rotate(180)" gradientUnits="userSpaceOnUse"><stop offset="0" stop-color="#d4088c"/><stop offset="0.04" stop-color="#cc088c"/><stop offset="0.46" stop-color="#85078a"/><stop offset="0.76" stop-color="#590689"/><stop offset="0.91" stop-color="#480689"/></linearGradient><linearGradient id="Áåçûìÿííûé_ãðàäèåíò_28" x1="775.69" y1="1111.98" x2="795.16" y2="1111.98" gradientTransform="translate(839.37 1161.52) rotate(180)" gradientUnits="userSpaceOnUse"><stop offset="0" stop-color="#6ee8fc"/><stop offset="0.16" stop-color="#6ae2fb"/><stop offset="0.37" stop-color="#5ed1f7"/><stop offset="0.61" stop-color="#4bb5f1"/><stop offset="0.87" stop-color="#308ee8"/><stop offset="0.96" stop-color="#267fe5"/></linearGradient><linearGradient id="Áåçûìÿííûé_ãðàäèåíò_28-2" x1="-412.88" y1="1048.47" x2="-369.1" y2="1048.47" gradientTransform="matrix(0, 1, -1, 0, 950.08, 601.26)" xlink:href="#Áåçûìÿííûé_ãðàäèåíò_28"/><linearGradient id="Áåçûìÿííûé_ãðàäèåíò_6" x1="-4648.42" y1="192.39" x2="-4511.45" y2="192.39" gradientTransform="matrix(-1, 0, 0, 1, -4801.38, 0)" gradientUnits="userSpaceOnUse"><stop offset="0" stop-color="#7bdaff"/><stop offset="1" stop-color="#59bdef"/></linearGradient><linearGradient id="Áåçûìÿííûé_ãðàäèåíò_14" x1="-4646.56" y1="192.99" x2="-4509.59" y2="192.99" gradientTransform="matrix(-1, 0, 0, 1, -4801.38, 0)" gradientUnits="userSpaceOnUse"><stop offset="0" stop-color="#2573ba"/><stop offset="1" stop-color="#0063ad"/></linearGradient><linearGradient id="Áåçûìÿííûé_ãðàäèåíò_3" x1="-4646.56" y1="192.99" x2="-4509.59" y2="192.99" gradientTransform="matrix(-1, 0, 0, 1, -4801.38, 0)" gradientUnits="userSpaceOnUse"><stop offset="0" stop-color="#2c75e4"/><stop offset="0.04" stop-color="#3461d5"/><stop offset="0.13" stop-color="#4140bb"/><stop offset="0.22" stop-color="#4b27a7"/><stop offset="0.32" stop-color="#521499"/><stop offset="0.41" stop-color="#570a91"/><stop offset="0.52" stop-color="#58068e"/><stop offset="0.66" stop-color="#5b078f"/><stop offset="0.76" stop-color="#640a92"/><stop offset="0.85" stop-color="#740f98"/><stop offset="0.93" stop-color="#8b17a0"/><stop offset="1" stop-color="#a31fa9"/></linearGradient><linearGradient id="Áåçûìÿííûé_ãðàäèåíò_6-2" x1="-4643.75" y1="193.01" x2="-4512.53" y2="193.01" gradientTransform="matrix(-1, 0, 0, 1, -4370.16, -63.77)" xlink:href="#Áåçûìÿííûé_ãðàäèåíò_6"/><linearGradient id="Áåçûìÿííûé_ãðàäèåíò_3-2" x1="-4630.07" y1="267.01" x2="-4436.61" y2="267.01" xlink:href="#Áåçûìÿííûé_ãðàäèåíò_3"/><radialGradient id="Áåçûìÿííûé_ãðàäèåíò_103" cx="-4636" cy="276.22" r="205.39" gradientTransform="matrix(-1, 0, 0, 1, -4801.38, 0)" gradientUnits="userSpaceOnUse"><stop offset="0" stop-color="#2979e4"/><stop offset="0.24" stop-color="#4958cd"/><stop offset="0.57" stop-color="#6e33b2"/><stop offset="0.83" stop-color="#851ba1"/><stop offset="1" stop-color="#8d139b"/></radialGradient><clipPath id="clip-path" transform="translate(431.22 -63.77)"><polygon class="cls-1" points="-273.41 118.19 -157.63 185.04 -171.81 268.6 -287.5 201.8 -273.41 118.19"/></clipPath><linearGradient id="Áåçûìÿííûé_ãðàäèåíò_21" x1="-4653.74" y1="219.14" x2="-4438.25" y2="219.14" gradientTransform="matrix(-1, 0, 0, 1, -4801.38, 0)" gradientUnits="userSpaceOnUse"><stop offset="0" stop-color="#c0bff6"/><stop offset="0.29" stop-color="#c5c4f7"/><stop offset="0.64" stop-color="#d3d2f9"/><stop offset="1" stop-color="#e9e9fd"/></linearGradient><radialGradient id="Áåçûìÿííûé_ãðàäèåíò_29" cx="215.73" cy="167.94" r="40.15" gradientUnits="userSpaceOnUse"><stop offset="0" stop-color="#22215b"/><stop offset="0.33" stop-color="#1e1e55"/><stop offset="0.75" stop-color="#141645"/><stop offset="1" stop-color="#0c0f38"/></radialGradient><radialGradient id="Áåçûìÿííûé_ãðàäèåíò_29-2" cx="223.35" cy="160.84" r="38.24" xlink:href="#Áåçûìÿííûé_ãðàäèåíò_29"/><radialGradient id="Áåçûìÿííûé_ãðàäèåíò_29-3" cx="237.15" cy="161.59" r="44.4" xlink:href="#Áåçûìÿííûé_ãðàäèåíò_29"/><radialGradient id="Áåçûìÿííûé_ãðàäèåíò_29-4" cx="243.4" cy="157.99" r="44.4" xlink:href="#Áåçûìÿííûé_ãðàäèåíò_29"/><radialGradient id="Áåçûìÿííûé_ãðàäèåíò_29-5" cx="249.64" cy="154.38" r="44.4" xlink:href="#Áåçûìÿííûé_ãðàäèåíò_29"/></defs><title>project3</title><g class="cls-2"><g id="Ñëîé_1" data-name="Ñëîé 1"><path class="cls-3" d="M221.23,406V395.62h2.3v4.21h1.6v-4.21h2.3V406h-2.3v-4.56h-1.6V406Z" transform="translate(431.22 -63.77)"/><path class="cls-3" d="M229,406V395.62h2.3V406Z" transform="translate(431.22 -63.77)"/><path class="cls-3" d="M232.92,402.23v-1.35h3.33v1.35Z" transform="translate(431.22 -63.77)"/><path class="cls-3" d="M238.79,406v-8.71h-1.6v-1.7h5.49v1.7h-1.58V406Z" transform="translate(431.22 -63.77)"/><path class="cls-3" d="M243.57,406V395.62h4.68v1.57h-2.38v2.57h1.81v1.6h-1.81v3.11h2.4V406Z" transform="translate(431.22 -63.77)"/><path class="cls-3" d="M252.29,406.17a4.09,4.09,0,0,1-1.49-.24,2.18,2.18,0,0,1-1-.71,3,3,0,0,1-.51-1.09,5.89,5.89,0,0,1-.16-1.44V399a6.1,6.1,0,0,1,.16-1.47,3,3,0,0,1,.51-1.09,2.14,2.14,0,0,1,1-.7,4.13,4.13,0,0,1,1.49-.24,4.29,4.29,0,0,1,1.43.21,2.06,2.06,0,0,1,.93.63,2.57,2.57,0,0,1,.48.94,4.55,4.55,0,0,1,.15,1.22v.92H253v-1c0-.16,0-.29,0-.37a2.36,2.36,0,0,0,0-.32.76.76,0,0,0-.11-.3.62.62,0,0,0-.22-.18.89.89,0,0,0-.73,0,.65.65,0,0,0-.23.19.9.9,0,0,0-.13.3,2,2,0,0,0-.06.35c0,.1,0,.23,0,.39v4.85a2.23,2.23,0,0,0,.16,1,.63.63,0,0,0,.62.33.74.74,0,0,0,.36-.08.63.63,0,0,0,.22-.19.82.82,0,0,0,.12-.3,2.06,2.06,0,0,0,0-.34c0-.1,0-.22,0-.38v-1.09h2.25v.9a5.38,5.38,0,0,1-.09,1,3.1,3.1,0,0,1-.3.85,2.1,2.1,0,0,1-.55.67,2.49,2.49,0,0,1-.86.42A4.31,4.31,0,0,1,252.29,406.17Z" transform="translate(431.22 -63.77)"/><path class="cls-3" d="M256.58,406V395.62h2.3v4.21h1.6v-4.21h2.3V406h-2.3v-4.56h-1.6V406Z" transform="translate(431.22 -63.77)"/><path class="cls-3" d="M221.21,393.12V382.38h2.7a6.87,6.87,0,0,1,1.75.19,2.25,2.25,0,0,1,1.69,1.66,6,6,0,0,1,.17,1.55v3.87a6.1,6.1,0,0,1-.17,1.57,2.47,2.47,0,0,1-.58,1.07,2.34,2.34,0,0,1-1.1.63,6.47,6.47,0,0,1-1.73.19Zm2.37-1.65h.36a2.6,2.6,0,0,0,.46,0,.77.77,0,0,0,.32-.13.88.88,0,0,0,.2-.19.72.72,0,0,0,.11-.29,2.77,2.77,0,0,0,0-.36c0-.11,0-.27,0-.46v-4.62a4.63,4.63,0,0,0,0-.63,1,1,0,0,0-.15-.4.6.6,0,0,0-.35-.25,2.31,2.31,0,0,0-.63-.07h-.36Z" transform="translate(431.22 -63.77)"/><path class="cls-3" d="M229,393.12V382.38h2.37v10.74Z" transform="translate(431.22 -63.77)"/><path class="cls-3" d="M235.74,393.28a3.37,3.37,0,0,1-1.4-.26,2.14,2.14,0,0,1-.92-.77,3.5,3.5,0,0,1-.49-1.17,6.86,6.86,0,0,1-.15-1.53V386a7.37,7.37,0,0,1,.1-1.28,3.9,3.9,0,0,1,.33-1,2.34,2.34,0,0,1,.6-.78,2.62,2.62,0,0,1,.92-.48,4.3,4.3,0,0,1,1.28-.17,4.64,4.64,0,0,1,1.24.15,2.71,2.71,0,0,1,.9.41,2.09,2.09,0,0,1,.59.66,2.94,2.94,0,0,1,.32.87,5.24,5.24,0,0,1,.1,1.05v.68h-2.32v-.86c0-.16,0-.3,0-.4a2.23,2.23,0,0,0-.05-.34.73.73,0,0,0-.12-.29.65.65,0,0,0-.23-.18.84.84,0,0,0-.37-.07.82.82,0,0,0-.39.08.69.69,0,0,0-.24.2,1,1,0,0,0-.13.32,2.05,2.05,0,0,0-.06.37c0,.11,0,.25,0,.41v4.92a2.25,2.25,0,0,0,.19,1,.71.71,0,0,0,.7.37q.93,0,.93-1.43V389h-1v-1.42h3.12v5.58h-1.57l-.14-.9A1.73,1.73,0,0,1,235.74,393.28Z" transform="translate(431.22 -63.77)"/><path class="cls-3" d="M240.66,393.12V382.38H243v10.74Z" transform="translate(431.22 -63.77)"/><path class="cls-3" d="M245.62,393.12v-9H244v-1.75h5.66v1.75H248v9Z" transform="translate(431.22 -63.77)"/><path class="cls-3" d="M250,393.12l2-10.74h2.68l2,10.74h-2.19l-.37-2.28h-1.57l-.36,2.28Zm2.82-3.7h1.15l-.58-4.16Z" transform="translate(431.22 -63.77)"/><path class="cls-3" d="M257.78,393.12V382.38h2.37v9.13h2.46v1.61Z" transform="translate(431.22 -63.77)"/><circle class="cls-4" cx="-407.71" cy="279.42" r="23.51" transform="translate(114.22 -270.22) rotate(-45)"/><circle class="cls-5" cx="53.94" cy="49.53" r="9.74"/><circle class="cls-6" cx="-98.34" cy="208.14" r="17.5" transform="translate(190.24 -36.32) rotate(-63.58)"/><path class="cls-7" d="M-93.86,279c-7,1.37-14.66-.82-17-4.88s1.42-8.46,8.46-9.83,14.66.82,17,4.88S-86.83,277.65-93.86,279Z" transform="translate(431.22 -63.77)"/><path class="cls-7" d="M-401.47,358.25c-9.79,1.9-20.39-1.14-23.69-6.8s2-11.77,11.77-13.67,20.39,1.14,23.69,6.79S-391.68,356.35-401.47,358.25Z" transform="translate(431.22 -63.77)"/><path class="cls-7" d="M-375.14,152.66c-3.51.68-7.32-.41-8.5-2.44s.71-4.23,4.22-4.91,7.32.41,8.5,2.44S-371.62,152-375.14,152.66Z" transform="translate(431.22 -63.77)"/><circle class="cls-8" cx="118.26" cy="9.02" r="2.49"/><circle class="cls-8" cx="74.54" cy="262.66" r="3.01"/><circle class="cls-9" cx="55.49" cy="249.36" r="1.55"/><circle class="cls-9" cx="318.03" cy="192.25" r="1.6"/><circle class="cls-9" cx="21.54" cy="84.32" r="2.25"/><circle class="cls-9" cx="189.74" cy="2.25" r="2.25"/><circle class="cls-9" cx="31.7" cy="79.33" r="1.25"/><circle class="cls-10" cx="246.01" cy="10.29" r="1.47"/><polygon class="cls-11" points="31.24 158.12 30.7 156.19 34.98 155 33.78 150.71 35.71 150.18 37.45 156.38 31.24 158.12"/><polygon class="cls-11" points="27.46 164.83 26.93 162.9 31.2 161.71 30.01 157.42 31.93 156.88 33.67 163.09 27.46 164.83"/><polygon class="cls-11" points="31.48 162.67 29.74 156.46 35.95 154.73 36.48 156.65 32.2 157.85 33.4 162.13 31.48 162.67"/><path class="cls-11" d="M-252.05,78.82a4.77,4.77,0,0,1-4.76-4.76,4.77,4.77,0,0,1,4.76-4.76,4.77,4.77,0,0,1,4.76,4.76A4.76,4.76,0,0,1-252.05,78.82Zm0-7.52a2.76,2.76,0,0,0-2.76,2.76,2.76,2.76,0,0,0,2.76,2.76,2.76,2.76,0,0,0,2.76-2.76A2.76,2.76,0,0,0-252.05,71.3Z" transform="translate(431.22 -63.77)"/><path class="cls-11" d="M-147.64,317l-5.4-5.4,5.4-5.4,5.4,5.4Zm-2.57-5.4,2.57,2.57,2.57-2.57-2.57-2.57Z" transform="translate(431.22 -63.77)"/><rect class="cls-12" x="-133.6" y="119.32" width="2" height="8.18" transform="translate(305.1 -121.38) rotate(-45.01)"/><rect class="cls-12" x="-136.68" y="122.41" width="8.18" height="2" transform="translate(305.11 -121.38) rotate(-45)"/><path class="cls-3" d="M276.62,388v-5.55h1v4.85H279v.7Z" transform="translate(431.22 -63.77)"/><path class="cls-3" d="M280.63,388.08a1.19,1.19,0,0,1-1-.36,1.52,1.52,0,0,1-.31-1v-1.31a1.52,1.52,0,0,1,.31-1,1.19,1.19,0,0,1,1-.36,1.21,1.21,0,0,1,1,.36,1.51,1.51,0,0,1,.32,1v1.31a1.51,1.51,0,0,1-.32,1A1.21,1.21,0,0,1,280.63,388.08Zm0-.66a.32.32,0,0,0,.19,0,.28.28,0,0,0,.1-.16,1.08,1.08,0,0,0,0-.2c0-.07,0-.15,0-.26v-1.43c0-.08,0-.15,0-.21a1.28,1.28,0,0,0,0-.18.41.41,0,0,0-.05-.15.32.32,0,0,0-.1-.09.35.35,0,0,0-.34,0,.28.28,0,0,0-.1.16,1.07,1.07,0,0,0,0,.2,2.55,2.55,0,0,0,0,.26v1.43c0,.08,0,.15,0,.21a1.26,1.26,0,0,0,0,.18.41.41,0,0,0,.05.15.3.3,0,0,0,.26.13Z" transform="translate(431.22 -63.77)"/><path class="cls-3" d="M282.56,388v-4h.94v.61a1.64,1.64,0,0,1,.4-.5.7.7,0,0,1,.43-.15l.14,0v.93a.88.88,0,0,0-.32-.06.7.7,0,0,0-.35.1,1,1,0,0,0-.3.31V388Z" transform="translate(431.22 -63.77)"/><path class="cls-3" d="M286.11,388.08a1.17,1.17,0,0,1-1-.37,1.75,1.75,0,0,1-.3-1.11v-1.12a1.74,1.74,0,0,1,.3-1.11,1.17,1.17,0,0,1,1-.37,1.53,1.53,0,0,1,.6.1.82.82,0,0,1,.38.31,1.39,1.39,0,0,1,.19.49,3.32,3.32,0,0,1,.06.66v.52h-1.57v.6c0,.08,0,.15,0,.19s0,.1,0,.17a.57.57,0,0,0,0,.15.52.52,0,0,0,.06.11.21.21,0,0,0,.1.08l.14,0a.27.27,0,0,0,.26-.13.8.8,0,0,0,.07-.38v-.23h.89v.16a1.33,1.33,0,0,1-.31.94A1.19,1.19,0,0,1,286.11,388.08Zm-.34-2.47h.68v-.38a.91.91,0,0,0-.08-.43.28.28,0,0,0-.27-.13.27.27,0,0,0-.26.15,1.4,1.4,0,0,0-.07.54Z" transform="translate(431.22 -63.77)"/><path class="cls-3" d="M288,388v-4h.89v.35a1.26,1.26,0,0,1,.94-.42.64.64,0,0,1,.66.49,1.28,1.28,0,0,1,1-.49.66.66,0,0,1,.53.24,1.07,1.07,0,0,1,.2.7V388h-.89v-3a.5.5,0,0,0-.07-.31.25.25,0,0,0-.21-.09.78.78,0,0,0-.49.23v0s0,0,0,0V388h-.89v-3a.5.5,0,0,0-.07-.31.25.25,0,0,0-.22-.09.82.82,0,0,0-.5.23V388Z" transform="translate(431.22 -63.77)"/><path class="cls-3" d="M294.59,383.43v-.79h.94v.79Zm0,4.59v-4h.94v4Z" transform="translate(431.22 -63.77)"/><path class="cls-3" d="M296.26,389.32v-5.27h.94v.3a1.1,1.1,0,0,1,.8-.37.76.76,0,0,1,.37.1.75.75,0,0,1,.25.23,1.28,1.28,0,0,1,.15.33,2,2,0,0,1,.08.35,2.62,2.62,0,0,1,0,.33v1.3a2.88,2.88,0,0,1,0,.55,1.7,1.7,0,0,1-.16.46.78.78,0,0,1-.73.44,1.08,1.08,0,0,1-.74-.36v1.6Zm1.35-1.91a.26.26,0,0,0,.17-.06.34.34,0,0,0,.1-.17,1.37,1.37,0,0,0,0-.23c0-.08,0-.17,0-.29v-1.37a1.86,1.86,0,0,0,0-.25,1,1,0,0,0-.05-.21.32.32,0,0,0-.11-.15.29.29,0,0,0-.18,0,.67.67,0,0,0-.39.16v2.48A.78.78,0,0,0,297.61,387.4Z" transform="translate(431.22 -63.77)"/><path class="cls-3" d="M300.55,388.08a1.18,1.18,0,0,1-.81-.27,1.43,1.43,0,0,1-.43-.79l.71-.26a1.23,1.23,0,0,0,.21.5.39.39,0,0,0,.33.16.33.33,0,0,0,.33-.35q0-.21-.39-.54l-.53-.46a1.34,1.34,0,0,1-.56-1,1,1,0,0,1,.32-.76,1.14,1.14,0,0,1,.8-.28,1,1,0,0,1,.76.28,1.35,1.35,0,0,1,.38.75l-.62.26q-.13-.62-.47-.62a.3.3,0,0,0-.24.09.31.31,0,0,0-.09.22q0,.18.33.47l.54.49.23.22a2.33,2.33,0,0,1,.19.23,1.06,1.06,0,0,1,.15.29,1.15,1.15,0,0,1,0,.34,1,1,0,0,1-.33.78A1.28,1.28,0,0,1,300.55,388.08Z" transform="translate(431.22 -63.77)"/><path class="cls-3" d="M302.86,388.07a.54.54,0,0,1-.49-.25,1.12,1.12,0,0,1-.16-.61v-3.17h.93v3a.52.52,0,0,0,.06.27.22.22,0,0,0,.21.09.75.75,0,0,0,.4-.17v-3.17h.93v4h-.93v-.37A1.42,1.42,0,0,1,302.86,388.07Z" transform="translate(431.22 -63.77)"/><path class="cls-3" d="M305.47,388v-4h.89v.35a1.26,1.26,0,0,1,.94-.42.64.64,0,0,1,.66.49,1.28,1.28,0,0,1,1-.49.66.66,0,0,1,.53.24,1.07,1.07,0,0,1,.2.7V388h-.89v-3a.5.5,0,0,0-.07-.31.25.25,0,0,0-.21-.09.78.78,0,0,0-.49.23v0s0,0,0,0V388h-.89v-3a.5.5,0,0,0-.07-.31.25.25,0,0,0-.22-.09.82.82,0,0,0-.5.23V388Z" transform="translate(431.22 -63.77)"/><path class="cls-3" d="M313,388.08a.83.83,0,0,1-.73-.34,1.94,1.94,0,0,1-.24-1.09v-1.15a3.13,3.13,0,0,1,0-.58,1.86,1.86,0,0,1,.15-.47.79.79,0,0,1,.3-.33.85.85,0,0,1,.45-.12,1,1,0,0,1,.7.3v-1.83h.94V388h-.94v-.27A1,1,0,0,1,313,388.08Zm.33-.67a.75.75,0,0,0,.36-.11v-2.53a.69.69,0,0,0-.37-.12.28.28,0,0,0-.27.17,1,1,0,0,0-.08.43v1.45a2.22,2.22,0,0,0,0,.35.51.51,0,0,0,.11.24A.27.27,0,0,0,313.29,387.41Z" transform="translate(431.22 -63.77)"/><path class="cls-3" d="M316.49,388.08a1.19,1.19,0,0,1-1-.36,1.52,1.52,0,0,1-.31-1v-1.31a1.52,1.52,0,0,1,.31-1,1.19,1.19,0,0,1,1-.36,1.21,1.21,0,0,1,1,.36,1.51,1.51,0,0,1,.32,1v1.31a1.51,1.51,0,0,1-.32,1A1.21,1.21,0,0,1,316.49,388.08Zm0-.66a.32.32,0,0,0,.19,0,.28.28,0,0,0,.1-.16,1.08,1.08,0,0,0,0-.2c0-.07,0-.15,0-.26v-1.43c0-.08,0-.15,0-.21a1.28,1.28,0,0,0,0-.18.41.41,0,0,0-.05-.15.32.32,0,0,0-.1-.09.35.35,0,0,0-.34,0,.28.28,0,0,0-.1.16,1.07,1.07,0,0,0,0,.2,2.55,2.55,0,0,0,0,.26v1.43c0,.08,0,.15,0,.21a1.26,1.26,0,0,0,0,.18.41.41,0,0,0,.05.15.3.3,0,0,0,.26.13Z" transform="translate(431.22 -63.77)"/><path class="cls-3" d="M318.47,388v-5.55h.94V388Z" transform="translate(431.22 -63.77)"/><path class="cls-3" d="M321.33,388.08a1.19,1.19,0,0,1-1-.36,1.52,1.52,0,0,1-.31-1v-1.31a1.52,1.52,0,0,1,.31-1,1.19,1.19,0,0,1,1-.36,1.21,1.21,0,0,1,1,.36,1.52,1.52,0,0,1,.32,1v1.31a1.52,1.52,0,0,1-.32,1A1.21,1.21,0,0,1,321.33,388.08Zm0-.66a.32.32,0,0,0,.19,0,.28.28,0,0,0,.1-.16,1.08,1.08,0,0,0,0-.2c0-.07,0-.15,0-.26v-1.43c0-.08,0-.15,0-.21a1.67,1.67,0,0,0,0-.18.43.43,0,0,0-.06-.15.31.31,0,0,0-.1-.09.3.3,0,0,0-.16,0,.31.31,0,0,0-.19.05.29.29,0,0,0-.1.16,1.16,1.16,0,0,0,0,.2c0,.07,0,.15,0,.26v1.43c0,.08,0,.15,0,.21a1.62,1.62,0,0,0,0,.18.42.42,0,0,0,.06.15.3.3,0,0,0,.26.13Z" transform="translate(431.22 -63.77)"/><path class="cls-3" d="M323.26,388v-4h.94v.61a1.63,1.63,0,0,1,.4-.5A.7.7,0,0,1,325,384l.14,0v.93a.88.88,0,0,0-.32-.06.7.7,0,0,0-.35.1,1,1,0,0,0-.3.31V388Z" transform="translate(431.22 -63.77)"/><path class="cls-3" d="M328.33,388.08a1.18,1.18,0,0,1-.81-.27,1.43,1.43,0,0,1-.43-.79l.71-.26a1.25,1.25,0,0,0,.21.5.4.4,0,0,0,.33.16.33.33,0,0,0,.33-.35q0-.21-.39-.54l-.53-.46a1.34,1.34,0,0,1-.56-1,1,1,0,0,1,.32-.76,1.14,1.14,0,0,1,.8-.28,1,1,0,0,1,.76.28,1.35,1.35,0,0,1,.38.75l-.62.26q-.13-.62-.48-.62a.3.3,0,0,0-.24.09.31.31,0,0,0-.09.22q0,.18.33.47l.54.49.23.22a2.34,2.34,0,0,1,.19.23,1,1,0,0,1,.15.29,1.15,1.15,0,0,1,0,.34,1,1,0,0,1-.33.78A1.29,1.29,0,0,1,328.33,388.08Z" transform="translate(431.22 -63.77)"/><path class="cls-3" d="M330,383.43v-.79H331v.79Zm0,4.59v-4H331v4Z" transform="translate(431.22 -63.77)"/><path class="cls-3" d="M332.82,388.07a1.11,1.11,0,0,1-.46-.09.66.66,0,0,1-.29-.25,1.15,1.15,0,0,1-.15-.36,2.13,2.13,0,0,1,0-.47v-2.22h-.39v-.62h.39v-1.16h.94v1.16h.6v.62h-.6V387a.38.38,0,0,0,.09.28.38.38,0,0,0,.27.09l.28,0V388A4.3,4.3,0,0,1,332.82,388.07Z" transform="translate(431.22 -63.77)"/><path class="cls-3" d="M336.43,388.08a.77.77,0,0,1-.61-.29,1,1,0,0,1-.24-.65,1.47,1.47,0,0,1,.11-.6,1.06,1.06,0,0,1,.37-.44,3.15,3.15,0,0,1,.43-.27l.53-.22.15-.06v-.33a.91.91,0,0,0-.06-.39.25.25,0,0,0-.25-.12c-.21,0-.31.15-.32.44v.25l-.9,0s0,0,0-.07,0-.06,0-.07a1.3,1.3,0,0,1,.37-.91,1.35,1.35,0,0,1,.93-.29,1.1,1.1,0,0,1,.87.32,1.31,1.31,0,0,1,.28.9V387a7.4,7.4,0,0,0,.07,1h-.85q-.08-.39-.1-.58a1,1,0,0,1-.28.46A.7.7,0,0,1,336.43,388.08Zm.36-.73a.35.35,0,0,0,.21-.08.87.87,0,0,0,.17-.16V386q-.7.38-.7.87a.61.61,0,0,0,.08.34A.26.26,0,0,0,336.79,387.35Z" transform="translate(431.22 -63.77)"/><path class="cls-3" d="M338.77,388v-4h.89v.35a1.26,1.26,0,0,1,.94-.42.64.64,0,0,1,.66.49,1.28,1.28,0,0,1,1-.49.66.66,0,0,1,.53.24,1.07,1.07,0,0,1,.2.7V388h-.89v-3a.5.5,0,0,0-.07-.31.25.25,0,0,0-.21-.09.78.78,0,0,0-.49.23.35.35,0,0,0,0,0s0,0,0,0V388h-.89v-3a.5.5,0,0,0-.07-.31.25.25,0,0,0-.22-.09.82.82,0,0,0-.5.23V388Z" transform="translate(431.22 -63.77)"/><path class="cls-3" d="M344.88,388.08a1.17,1.17,0,0,1-1-.37,1.75,1.75,0,0,1-.3-1.11v-1.12a1.74,1.74,0,0,1,.3-1.11,1.17,1.17,0,0,1,1-.37,1.54,1.54,0,0,1,.6.1.83.83,0,0,1,.38.31,1.43,1.43,0,0,1,.19.49,3.4,3.4,0,0,1,.06.66v.52h-1.57v.6c0,.08,0,.15,0,.19s0,.1,0,.17a.57.57,0,0,0,0,.15l.06.11a.2.2,0,0,0,.1.08l.14,0a.27.27,0,0,0,.26-.13.8.8,0,0,0,.07-.38v-.23h.89v.16a1.33,1.33,0,0,1-.31.94A1.19,1.19,0,0,1,344.88,388.08Zm-.34-2.47h.68v-.38a.92.92,0,0,0-.08-.43.28.28,0,0,0-.27-.13.26.26,0,0,0-.26.15,1.4,1.4,0,0,0-.07.54Z" transform="translate(431.22 -63.77)"/><path class="cls-3" d="M347.85,388.07a1.11,1.11,0,0,1-.46-.09.66.66,0,0,1-.29-.25,1.15,1.15,0,0,1-.15-.36,2.13,2.13,0,0,1,0-.47v-2.22h-.39v-.62h.39v-1.16h.94v1.16h.6v.62h-.6V387a.38.38,0,0,0,.08.28.38.38,0,0,0,.27.09l.28,0V388A4.3,4.3,0,0,1,347.85,388.07Z" transform="translate(431.22 -63.77)"/><path class="cls-3" d="M349.08,389l-.1-.35a.57.57,0,0,0,.45-.59h-.49v-.91h.92v.84A.9.9,0,0,1,349.08,389Z" transform="translate(431.22 -63.77)"/><path class="cls-3" d="M353.32,388.08a1.15,1.15,0,0,1-1-.38,1.75,1.75,0,0,1-.29-1.09v-1.15a1.74,1.74,0,0,1,.29-1.09,1.16,1.16,0,0,1,1-.37,1.23,1.23,0,0,1,.92.3,1.29,1.29,0,0,1,.29.92v.32h-.87v-.34a.87.87,0,0,0-.07-.42.32.32,0,0,0-.51,0,1.33,1.33,0,0,0-.07.52v1.45a1.15,1.15,0,0,0,.08.51.27.27,0,0,0,.26.13.26.26,0,0,0,.25-.13.87.87,0,0,0,.07-.39v-.42h.87v.38a1.3,1.3,0,0,1-.29.93A1.2,1.2,0,0,1,353.32,388.08Z" transform="translate(431.22 -63.77)"/><path class="cls-3" d="M356.33,388.08a1.19,1.19,0,0,1-1-.36,1.52,1.52,0,0,1-.31-1v-1.31a1.52,1.52,0,0,1,.31-1,1.19,1.19,0,0,1,1-.36,1.21,1.21,0,0,1,1,.36,1.52,1.52,0,0,1,.32,1v1.31a1.52,1.52,0,0,1-.32,1A1.21,1.21,0,0,1,356.33,388.08Zm0-.66a.32.32,0,0,0,.19,0,.28.28,0,0,0,.1-.16,1.08,1.08,0,0,0,0-.2c0-.07,0-.15,0-.26v-1.43c0-.08,0-.15,0-.21a1.68,1.68,0,0,0,0-.18.43.43,0,0,0-.06-.15.31.31,0,0,0-.1-.09.3.3,0,0,0-.16,0,.31.31,0,0,0-.19.05.29.29,0,0,0-.1.16,1.15,1.15,0,0,0,0,.2c0,.07,0,.15,0,.26v1.43c0,.08,0,.15,0,.21a1.62,1.62,0,0,0,0,.18.43.43,0,0,0,.06.15.3.3,0,0,0,.26.13Z" transform="translate(431.22 -63.77)"/><path class="cls-3" d="M358.25,388v-4h.94v.39a1.42,1.42,0,0,1,1-.45.54.54,0,0,1,.49.25,1.12,1.12,0,0,1,.16.61V388h-.94v-3a.56.56,0,0,0-.05-.28.22.22,0,0,0-.21-.09.78.78,0,0,0-.42.18V388Z" transform="translate(431.22 -63.77)"/><path class="cls-3" d="M362.52,388.08a1.18,1.18,0,0,1-.81-.27,1.43,1.43,0,0,1-.43-.79l.71-.26a1.25,1.25,0,0,0,.21.5.4.4,0,0,0,.33.16.33.33,0,0,0,.33-.35q0-.21-.39-.54l-.53-.46a1.34,1.34,0,0,1-.56-1,1,1,0,0,1,.32-.76,1.14,1.14,0,0,1,.8-.28,1,1,0,0,1,.76.28,1.35,1.35,0,0,1,.38.75l-.62.26q-.13-.62-.48-.62a.3.3,0,0,0-.24.09.31.31,0,0,0-.09.22q0,.18.33.47l.54.49.23.22a2.35,2.35,0,0,1,.19.23,1,1,0,0,1,.15.29,1.14,1.14,0,0,1,0,.34,1,1,0,0,1-.33.78A1.29,1.29,0,0,1,362.52,388.08Z" transform="translate(431.22 -63.77)"/><path class="cls-3" d="M365.41,388.08a1.17,1.17,0,0,1-1-.37,1.75,1.75,0,0,1-.3-1.11v-1.12a1.74,1.74,0,0,1,.3-1.11,1.17,1.17,0,0,1,1-.37,1.54,1.54,0,0,1,.6.1.83.83,0,0,1,.38.31,1.43,1.43,0,0,1,.19.49,3.4,3.4,0,0,1,.06.66v.52h-1.57v.6c0,.08,0,.15,0,.19s0,.1,0,.17a.57.57,0,0,0,0,.15l.06.11a.21.21,0,0,0,.1.08l.14,0a.27.27,0,0,0,.26-.13.8.8,0,0,0,.07-.38v-.23h.89v.16a1.33,1.33,0,0,1-.31.94A1.19,1.19,0,0,1,365.41,388.08Zm-.34-2.47h.68v-.38a.92.92,0,0,0-.08-.43.28.28,0,0,0-.27-.13.26.26,0,0,0-.26.15,1.4,1.4,0,0,0-.07.54Z" transform="translate(431.22 -63.77)"/><path class="cls-3" d="M368.46,388.08a1.15,1.15,0,0,1-1-.38,1.75,1.75,0,0,1-.29-1.09v-1.15a1.74,1.74,0,0,1,.29-1.09,1.16,1.16,0,0,1,1-.37,1.23,1.23,0,0,1,.92.3,1.29,1.29,0,0,1,.29.92v.32h-.87v-.34a.87.87,0,0,0-.07-.42.32.32,0,0,0-.51,0,1.34,1.34,0,0,0-.07.52v1.45a1.15,1.15,0,0,0,.08.51.27.27,0,0,0,.26.13.26.26,0,0,0,.25-.13.87.87,0,0,0,.07-.39v-.42h.87v.38a1.3,1.3,0,0,1-.29.93A1.2,1.2,0,0,1,368.46,388.08Z" transform="translate(431.22 -63.77)"/><path class="cls-3" d="M371.38,388.07a1.11,1.11,0,0,1-.46-.09.66.66,0,0,1-.29-.25,1.15,1.15,0,0,1-.15-.36,2.13,2.13,0,0,1,0-.47v-2.22H370v-.62h.39v-1.16h.94v1.16h.6v.62h-.6V387a.38.38,0,0,0,.09.28.38.38,0,0,0,.27.09l.28,0V388A4.3,4.3,0,0,1,371.38,388.07Z" transform="translate(431.22 -63.77)"/><path class="cls-3" d="M373.75,388.08a1.17,1.17,0,0,1-1-.37,1.75,1.75,0,0,1-.3-1.11v-1.12a1.74,1.74,0,0,1,.3-1.11,1.17,1.17,0,0,1,1-.37,1.54,1.54,0,0,1,.6.1.83.83,0,0,1,.38.31,1.43,1.43,0,0,1,.19.49,3.4,3.4,0,0,1,.06.66v.52h-1.57v.6c0,.08,0,.15,0,.19s0,.1,0,.17a.57.57,0,0,0,0,.15l.06.11a.2.2,0,0,0,.1.08l.14,0a.27.27,0,0,0,.26-.13.8.8,0,0,0,.07-.38v-.23H375v.16a1.33,1.33,0,0,1-.31.94A1.19,1.19,0,0,1,373.75,388.08Zm-.34-2.47h.68v-.38a.92.92,0,0,0-.08-.43.28.28,0,0,0-.27-.13.26.26,0,0,0-.26.15,1.39,1.39,0,0,0-.07.54Z" transform="translate(431.22 -63.77)"/><path class="cls-3" d="M376.72,388.07a1.11,1.11,0,0,1-.46-.09.66.66,0,0,1-.29-.25,1.15,1.15,0,0,1-.15-.36,2.14,2.14,0,0,1,0-.47v-2.22h-.39v-.62h.39v-1.16h.94v1.16h.6v.62h-.6V387a.38.38,0,0,0,.09.28.38.38,0,0,0,.27.09l.28,0V388A4.3,4.3,0,0,1,376.72,388.07Z" transform="translate(431.22 -63.77)"/><path class="cls-3" d="M378.51,388.07a.54.54,0,0,1-.49-.25,1.12,1.12,0,0,1-.16-.61v-3.17h.93v3a.52.52,0,0,0,.06.27.22.22,0,0,0,.21.09.75.75,0,0,0,.4-.17v-3.17h.93v4h-.93v-.37A1.42,1.42,0,0,1,378.51,388.07Z" transform="translate(431.22 -63.77)"/><path class="cls-3" d="M381.13,388v-4h.94v.61a1.63,1.63,0,0,1,.4-.5.7.7,0,0,1,.43-.15l.14,0v.93a.88.88,0,0,0-.32-.06.7.7,0,0,0-.35.1,1,1,0,0,0-.3.31V388Z" transform="translate(431.22 -63.77)"/><path class="cls-3" d="M277.32,397a.77.77,0,0,1-.61-.29,1,1,0,0,1-.24-.65,1.47,1.47,0,0,1,.11-.6A1.06,1.06,0,0,1,277,395a3.26,3.26,0,0,1,.43-.27l.53-.22.15-.06v-.33a.93.93,0,0,0-.06-.39.26.26,0,0,0-.25-.12c-.21,0-.31.15-.32.44v.25l-.9,0s0,0,0-.07,0-.06,0-.07a1.29,1.29,0,0,1,.37-.91,1.35,1.35,0,0,1,.93-.29,1.1,1.1,0,0,1,.87.32,1.31,1.31,0,0,1,.28.9V396a7.27,7.27,0,0,0,.07,1h-.85q-.08-.39-.1-.58a1,1,0,0,1-.28.46A.7.7,0,0,1,277.32,397Zm.36-.73a.35.35,0,0,0,.21-.08.85.85,0,0,0,.17-.16V395q-.7.38-.7.87a.61.61,0,0,0,.08.34A.26.26,0,0,0,277.68,396.31Z" transform="translate(431.22 -63.77)"/><path class="cls-3" d="M280.56,397a.83.83,0,0,1-.73-.34,1.94,1.94,0,0,1-.24-1.09v-1.15a3.14,3.14,0,0,1,0-.58,1.82,1.82,0,0,1,.15-.47.79.79,0,0,1,.3-.33.85.85,0,0,1,.46-.12,1,1,0,0,1,.7.3v-1.83h.94V397h-.94v-.27A1,1,0,0,1,280.56,397Zm.33-.67a.74.74,0,0,0,.36-.11v-2.53a.69.69,0,0,0-.36-.12.28.28,0,0,0-.27.17,1,1,0,0,0-.08.43v1.45a2.22,2.22,0,0,0,0,.35.51.51,0,0,0,.11.24A.27.27,0,0,0,280.89,396.36Z" transform="translate(431.22 -63.77)"/><path class="cls-3" d="M282.93,392.38v-.79h.94v.79Zm0,4.59v-4h.94v4Z" transform="translate(431.22 -63.77)"/><path class="cls-3" d="M284.61,398.27V393h.94v.3a1.1,1.1,0,0,1,.8-.37.77.77,0,0,1,.37.1.74.74,0,0,1,.25.23,1.25,1.25,0,0,1,.15.33,2.08,2.08,0,0,1,.08.35,2.64,2.64,0,0,1,0,.33v1.3a2.88,2.88,0,0,1,0,.55,1.7,1.7,0,0,1-.16.46.78.78,0,0,1-.73.44,1.09,1.09,0,0,1-.74-.36v1.6Zm1.35-1.91a.26.26,0,0,0,.17-.06.34.34,0,0,0,.1-.17,1.29,1.29,0,0,0,0-.23c0-.08,0-.17,0-.29v-1.37a1.86,1.86,0,0,0,0-.25,1,1,0,0,0-.05-.21.31.31,0,0,0-.11-.15.29.29,0,0,0-.18,0,.67.67,0,0,0-.39.16v2.48A.78.78,0,0,0,286,396.36Z" transform="translate(431.22 -63.77)"/><path class="cls-3" d="M287.9,392.38v-.79h.94v.79Zm0,4.59v-4h.94v4Z" transform="translate(431.22 -63.77)"/><path class="cls-3" d="M290.6,397a1.18,1.18,0,0,1-.81-.27,1.44,1.44,0,0,1-.43-.79l.71-.26a1.25,1.25,0,0,0,.21.5.39.39,0,0,0,.33.16.33.33,0,0,0,.24-.11.33.33,0,0,0,.09-.25q0-.21-.39-.54L290,395a1.34,1.34,0,0,1-.56-1,1,1,0,0,1,.32-.76,1.15,1.15,0,0,1,.8-.28,1,1,0,0,1,.76.28,1.36,1.36,0,0,1,.38.75l-.62.26q-.13-.62-.47-.62a.3.3,0,0,0-.24.09.31.31,0,0,0-.09.22q0,.18.33.47l.54.49.23.22a2.34,2.34,0,0,1,.19.23,1,1,0,0,1,.15.29,1.14,1.14,0,0,1,0,.34,1,1,0,0,1-.33.78A1.29,1.29,0,0,1,290.6,397Z" transform="translate(431.22 -63.77)"/><path class="cls-3" d="M293.48,397a1.15,1.15,0,0,1-1-.38,1.75,1.75,0,0,1-.29-1.09v-1.15a1.74,1.74,0,0,1,.29-1.09,1.16,1.16,0,0,1,1-.37,1.23,1.23,0,0,1,.92.3,1.29,1.29,0,0,1,.29.92v.32h-.87v-.34a.87.87,0,0,0-.07-.42.32.32,0,0,0-.52,0,1.36,1.36,0,0,0-.07.52v1.45a1.17,1.17,0,0,0,.08.51.27.27,0,0,0,.26.13.26.26,0,0,0,.25-.13.87.87,0,0,0,.07-.39v-.42h.87v.38a1.3,1.3,0,0,1-.29.93A1.2,1.2,0,0,1,293.48,397Z" transform="translate(431.22 -63.77)"/><path class="cls-3" d="M295.33,392.38v-.79h.94v.79Zm0,4.59v-4h.94v4Z" transform="translate(431.22 -63.77)"/><path class="cls-3" d="M297,397v-4h.94v.39a1.43,1.43,0,0,1,1-.45.54.54,0,0,1,.49.25,1.11,1.11,0,0,1,.16.61V397h-.94v-3a.57.57,0,0,0-.05-.28.22.22,0,0,0-.21-.09.79.79,0,0,0-.42.18V397Z" transform="translate(431.22 -63.77)"/><path class="cls-3" d="M301.62,398.17h-.31l-.31,0-.3,0-.26-.08a.76.76,0,0,1-.21-.12.55.55,0,0,1-.14-.17.52.52,0,0,1-.05-.24,1,1,0,0,1,.56-.84q-.4-.14-.43-.44a.56.56,0,0,1,.09-.37,1.94,1.94,0,0,1,.36-.37,1.06,1.06,0,0,1-.33-.42,1.71,1.71,0,0,1-.11-.67,1.59,1.59,0,0,1,.32-1.08,1.16,1.16,0,0,1,.92-.35.91.91,0,0,1,.85.39,1.65,1.65,0,0,1,.22-.21,1.57,1.57,0,0,1,.31-.2l.13-.06.22.52-.35.12-.32.14a1.28,1.28,0,0,1,.11.33,2,2,0,0,1,0,.43q0,1.36-1.19,1.36l-.27,0-.22,0a.48.48,0,0,0-.11.26c0,.09.12.14.35.17l.35,0,.37,0a1.17,1.17,0,0,1,.73.29.93.93,0,0,1,.23.67,1,1,0,0,1-.29.77A1.52,1.52,0,0,1,301.62,398.17Zm0-.66a.91.91,0,0,0,.42-.07.26.26,0,0,0,.14-.24.29.29,0,0,0-.09-.26.69.69,0,0,0-.36-.11l-.63-.06a.7.7,0,0,0-.2.44.25.25,0,0,0,.05.17.4.4,0,0,0,.21.1A2.34,2.34,0,0,0,301.61,397.51Zm-.18-2.36a.29.29,0,0,0,.3-.17,1.85,1.85,0,0,0,.07-.62,2,2,0,0,0-.07-.63.28.28,0,0,0-.3-.18.29.29,0,0,0-.31.18,1.94,1.94,0,0,0-.07.63c0,.11,0,.2,0,.27a1.28,1.28,0,0,0,0,.22.51.51,0,0,0,.06.17.3.3,0,0,0,.11.1A.34.34,0,0,0,301.43,395.15Z" transform="translate(431.22 -63.77)"/><path class="cls-3" d="M306.3,397a1.17,1.17,0,0,1-1-.37,1.75,1.75,0,0,1-.3-1.11v-1.12a1.74,1.74,0,0,1,.3-1.11,1.17,1.17,0,0,1,1-.37,1.53,1.53,0,0,1,.6.1.82.82,0,0,1,.38.31,1.4,1.4,0,0,1,.19.49,3.32,3.32,0,0,1,.06.66V395H306v.6c0,.08,0,.15,0,.19s0,.1,0,.17a.56.56,0,0,0,0,.15.52.52,0,0,0,.06.11.21.21,0,0,0,.1.08l.14,0a.27.27,0,0,0,.26-.13.8.8,0,0,0,.07-.38v-.23h.89v.16a1.33,1.33,0,0,1-.31.94A1.19,1.19,0,0,1,306.3,397Zm-.34-2.47h.68v-.38a.91.91,0,0,0-.08-.43.28.28,0,0,0-.27-.13.27.27,0,0,0-.26.15,1.39,1.39,0,0,0-.07.54Z" transform="translate(431.22 -63.77)"/><path class="cls-3" d="M308.22,397v-5.55h.94V397Z" transform="translate(431.22 -63.77)"/><path class="cls-3" d="M309.92,392.38v-.79h.94v.79Zm0,4.59v-4h.94v4Z" transform="translate(431.22 -63.77)"/><path class="cls-3" d="M312.7,397a1.11,1.11,0,0,1-.46-.09.65.65,0,0,1-.29-.25,1.15,1.15,0,0,1-.15-.36,2.14,2.14,0,0,1,0-.47v-2.22h-.39V393h.39v-1.16h.94V393h.6v.62h-.6v2.28a.38.38,0,0,0,.09.28.38.38,0,0,0,.27.09l.28,0V397A4.31,4.31,0,0,1,312.7,397Z" transform="translate(431.22 -63.77)"/><path class="cls-3" d="M313.93,397.91l-.1-.35a.6.6,0,0,0,.32-.2.59.59,0,0,0,.13-.39h-.49v-.91h.92v.84A.9.9,0,0,1,313.93,397.91Z" transform="translate(431.22 -63.77)"/><path class="cls-3" d="M318,397a1.18,1.18,0,0,1-.81-.27,1.43,1.43,0,0,1-.43-.79l.71-.26a1.25,1.25,0,0,0,.21.5.4.4,0,0,0,.33.16.33.33,0,0,0,.33-.35q0-.21-.39-.54l-.53-.46a1.34,1.34,0,0,1-.56-1,1,1,0,0,1,.32-.76,1.14,1.14,0,0,1,.8-.28,1,1,0,0,1,.76.28,1.35,1.35,0,0,1,.38.75l-.62.26q-.13-.62-.48-.62a.29.29,0,0,0-.24.09.31.31,0,0,0-.09.22q0,.18.33.47l.54.49.23.22a2.35,2.35,0,0,1,.19.23,1,1,0,0,1,.15.29,1.15,1.15,0,0,1,0,.34,1,1,0,0,1-.33.78A1.29,1.29,0,0,1,318,397Z" transform="translate(431.22 -63.77)"/><path class="cls-3" d="M320.9,397a1.17,1.17,0,0,1-1-.37,1.75,1.75,0,0,1-.3-1.11v-1.12a1.74,1.74,0,0,1,.3-1.11,1.17,1.17,0,0,1,1-.37,1.54,1.54,0,0,1,.6.1.83.83,0,0,1,.38.31,1.43,1.43,0,0,1,.19.49,3.4,3.4,0,0,1,.06.66V395h-1.57v.6c0,.08,0,.15,0,.19s0,.1,0,.17a.56.56,0,0,0,0,.15l.06.11a.2.2,0,0,0,.1.08l.14,0a.27.27,0,0,0,.26-.13.8.8,0,0,0,.07-.38v-.23h.89v.16a1.33,1.33,0,0,1-.31.94A1.19,1.19,0,0,1,320.9,397Zm-.34-2.47h.68v-.38a.92.92,0,0,0-.08-.43.28.28,0,0,0-.27-.13.26.26,0,0,0-.26.15,1.39,1.39,0,0,0-.07.54Z" transform="translate(431.22 -63.77)"/><path class="cls-3" d="M323.66,397a.83.83,0,0,1-.73-.34,1.94,1.94,0,0,1-.24-1.09v-1.15a3.14,3.14,0,0,1,0-.58,1.82,1.82,0,0,1,.15-.47.79.79,0,0,1,.3-.33.86.86,0,0,1,.46-.12,1,1,0,0,1,.7.3v-1.83h.94V397h-.94v-.27A1,1,0,0,1,323.66,397Zm.33-.67a.74.74,0,0,0,.36-.11v-2.53a.69.69,0,0,0-.37-.12.28.28,0,0,0-.27.17,1,1,0,0,0-.08.43v1.45a2.22,2.22,0,0,0,0,.35.51.51,0,0,0,.11.24A.27.27,0,0,0,324,396.36Z" transform="translate(431.22 -63.77)"/><path class="cls-3" d="M328.57,397a.83.83,0,0,1-.73-.34,1.94,1.94,0,0,1-.24-1.09v-1.15a3.14,3.14,0,0,1,0-.58,1.82,1.82,0,0,1,.15-.47.79.79,0,0,1,.3-.33.86.86,0,0,1,.46-.12,1,1,0,0,1,.7.3v-1.83h.94V397h-.94v-.27A1,1,0,0,1,328.57,397Zm.33-.67a.74.74,0,0,0,.36-.11v-2.53a.69.69,0,0,0-.37-.12.28.28,0,0,0-.27.17,1,1,0,0,0-.08.43v1.45a2.21,2.21,0,0,0,0,.35.51.51,0,0,0,.11.24A.27.27,0,0,0,328.9,396.36Z" transform="translate(431.22 -63.77)"/><path class="cls-3" d="M332.11,397a1.19,1.19,0,0,1-1-.36,1.52,1.52,0,0,1-.31-1v-1.31a1.52,1.52,0,0,1,.31-1,1.19,1.19,0,0,1,1-.36,1.21,1.21,0,0,1,1,.36,1.52,1.52,0,0,1,.32,1v1.31a1.52,1.52,0,0,1-.32,1A1.21,1.21,0,0,1,332.11,397Zm0-.66a.32.32,0,0,0,.19,0,.28.28,0,0,0,.1-.16,1.09,1.09,0,0,0,0-.2c0-.07,0-.15,0-.26v-1.43c0-.08,0-.15,0-.21a1.66,1.66,0,0,0,0-.18.43.43,0,0,0-.06-.15.31.31,0,0,0-.1-.09.3.3,0,0,0-.16,0,.31.31,0,0,0-.19.05.29.29,0,0,0-.1.16,1.15,1.15,0,0,0,0,.2c0,.07,0,.15,0,.26v1.43c0,.08,0,.15,0,.21a1.63,1.63,0,0,0,0,.18.43.43,0,0,0,.06.15.3.3,0,0,0,.26.13Z" transform="translate(431.22 -63.77)"/><path class="cls-3" d="M336.9,397a1.17,1.17,0,0,1-1-.37,1.75,1.75,0,0,1-.3-1.11v-1.12a1.74,1.74,0,0,1,.3-1.11,1.17,1.17,0,0,1,1-.37,1.54,1.54,0,0,1,.6.1.83.83,0,0,1,.38.31,1.44,1.44,0,0,1,.19.49,3.4,3.4,0,0,1,.06.66V395h-1.57v.6c0,.08,0,.15,0,.19s0,.1,0,.17a.56.56,0,0,0,0,.15l.06.11a.2.2,0,0,0,.1.08l.14,0a.27.27,0,0,0,.26-.13.8.8,0,0,0,.07-.38v-.23h.89v.16a1.33,1.33,0,0,1-.31.94A1.19,1.19,0,0,1,336.9,397Zm-.34-2.47h.68v-.38a.92.92,0,0,0-.08-.43.28.28,0,0,0-.27-.13.26.26,0,0,0-.26.15,1.39,1.39,0,0,0-.07.54Z" transform="translate(431.22 -63.77)"/><path class="cls-3" d="M338.79,392.38v-.79h.94v.79Zm0,4.59v-4h.94v4Z" transform="translate(431.22 -63.77)"/><path class="cls-3" d="M341.08,397a.54.54,0,0,1-.49-.25,1.12,1.12,0,0,1-.16-.61V393h.93v3a.52.52,0,0,0,.06.27.22.22,0,0,0,.21.09.75.75,0,0,0,.4-.17V393H343v4H342v-.37A1.42,1.42,0,0,1,341.08,397Z" transform="translate(431.22 -63.77)"/><path class="cls-3" d="M344.72,397a1.18,1.18,0,0,1-.81-.27,1.43,1.43,0,0,1-.43-.79l.71-.26a1.25,1.25,0,0,0,.21.5.4.4,0,0,0,.34.16.33.33,0,0,0,.33-.35q0-.21-.39-.54l-.53-.46a1.34,1.34,0,0,1-.56-1,1,1,0,0,1,.32-.76,1.14,1.14,0,0,1,.8-.28,1,1,0,0,1,.76.28,1.35,1.35,0,0,1,.38.75l-.62.26q-.13-.62-.48-.62a.3.3,0,0,0-.24.09.31.31,0,0,0-.09.22q0,.18.33.47l.54.49.23.22a2.34,2.34,0,0,1,.19.23,1,1,0,0,1,.15.29,1.14,1.14,0,0,1,0,.34,1,1,0,0,1-.33.78A1.29,1.29,0,0,1,344.72,397Z" transform="translate(431.22 -63.77)"/><path class="cls-3" d="M346.41,397v-4h.89v.35a1.26,1.26,0,0,1,.94-.42.64.64,0,0,1,.66.49,1.28,1.28,0,0,1,1-.49.65.65,0,0,1,.53.24,1.07,1.07,0,0,1,.2.7V397h-.89v-3a.5.5,0,0,0-.07-.31.25.25,0,0,0-.21-.09.78.78,0,0,0-.49.23.33.33,0,0,0,0,0s0,0,0,0V397h-.89v-3a.5.5,0,0,0-.07-.31.25.25,0,0,0-.22-.09.82.82,0,0,0-.5.23V397Z" transform="translate(431.22 -63.77)"/><path class="cls-3" d="M352.51,397a1.19,1.19,0,0,1-1-.36,1.52,1.52,0,0,1-.31-1v-1.31a1.52,1.52,0,0,1,.31-1,1.19,1.19,0,0,1,1-.36,1.21,1.21,0,0,1,1,.36,1.52,1.52,0,0,1,.32,1v1.31a1.52,1.52,0,0,1-.32,1A1.21,1.21,0,0,1,352.51,397Zm0-.66a.32.32,0,0,0,.19,0,.28.28,0,0,0,.1-.16,1.08,1.08,0,0,0,0-.2c0-.07,0-.15,0-.26v-1.43c0-.08,0-.15,0-.21a1.65,1.65,0,0,0,0-.18.43.43,0,0,0-.06-.15.29.29,0,0,0-.26-.13.31.31,0,0,0-.19.05.29.29,0,0,0-.1.16,1.14,1.14,0,0,0,0,.2c0,.07,0,.15,0,.26v1.43c0,.08,0,.15,0,.21a1.61,1.61,0,0,0,0,.18.43.43,0,0,0,.06.15.3.3,0,0,0,.26.13Z" transform="translate(431.22 -63.77)"/><path class="cls-3" d="M355.33,397a.83.83,0,0,1-.73-.34,1.94,1.94,0,0,1-.24-1.09v-1.15a3.14,3.14,0,0,1,0-.58,1.82,1.82,0,0,1,.15-.47.79.79,0,0,1,.3-.33.86.86,0,0,1,.45-.12,1,1,0,0,1,.7.3v-1.83H357V397H356v-.27A1,1,0,0,1,355.33,397Zm.33-.67a.74.74,0,0,0,.36-.11v-2.53a.69.69,0,0,0-.37-.12.28.28,0,0,0-.27.17,1,1,0,0,0-.08.43v1.45a2.22,2.22,0,0,0,0,.35.51.51,0,0,0,.11.24A.27.27,0,0,0,355.66,396.36Z" transform="translate(431.22 -63.77)"/><path class="cls-3" d="M277.67,406a1.12,1.12,0,0,1-.46-.09.66.66,0,0,1-.29-.25,1.15,1.15,0,0,1-.15-.36,2.13,2.13,0,0,1,0-.47v-2.22h-.39V402h.39V400.8h.94V402h.6v.62h-.6v2.28a.31.31,0,0,0,.36.37l.29,0v.72A4.31,4.31,0,0,1,277.67,406Z" transform="translate(431.22 -63.77)"/><path class="cls-3" d="M280,406a1.17,1.17,0,0,1-1-.37,1.75,1.75,0,0,1-.3-1.11v-1.12a1.74,1.74,0,0,1,.3-1.11,1.17,1.17,0,0,1,1-.37,1.53,1.53,0,0,1,.6.1.82.82,0,0,1,.38.31,1.4,1.4,0,0,1,.19.49,3.32,3.32,0,0,1,.06.66V404h-1.57v.6c0,.08,0,.15,0,.19s0,.1,0,.17a.56.56,0,0,0,0,.15.52.52,0,0,0,.06.11.2.2,0,0,0,.1.08l.14,0a.27.27,0,0,0,.26-.13.8.8,0,0,0,.07-.38v-.23h.89v.16a1.33,1.33,0,0,1-.31.94A1.19,1.19,0,0,1,280,406Zm-.34-2.47h.68v-.38a.91.91,0,0,0-.08-.43.28.28,0,0,0-.27-.13.27.27,0,0,0-.26.15,1.39,1.39,0,0,0-.07.54Z" transform="translate(431.22 -63.77)"/><path class="cls-3" d="M281.9,405.92v-4h.89v.35a1.26,1.26,0,0,1,.94-.42.64.64,0,0,1,.66.49,1.28,1.28,0,0,1,1-.49.66.66,0,0,1,.53.24,1.07,1.07,0,0,1,.2.7v3.09h-.89v-3a.5.5,0,0,0-.07-.31.25.25,0,0,0-.21-.09.78.78,0,0,0-.49.23v0s0,0,0,0v3.09h-.89v-3a.5.5,0,0,0-.07-.31.25.25,0,0,0-.22-.09.82.82,0,0,0-.5.23v3.17Z" transform="translate(431.22 -63.77)"/><path class="cls-3" d="M286.81,407.23V402h.94v.3a1.1,1.1,0,0,1,.8-.37.77.77,0,0,1,.37.1.74.74,0,0,1,.25.23,1.25,1.25,0,0,1,.15.33,2.07,2.07,0,0,1,.08.35,2.64,2.64,0,0,1,0,.33v1.3a2.87,2.87,0,0,1,0,.55,1.7,1.7,0,0,1-.16.46.78.78,0,0,1-.73.44,1.08,1.08,0,0,1-.74-.36v1.6Zm1.35-1.91a.26.26,0,0,0,.17-.06.34.34,0,0,0,.1-.17,1.29,1.29,0,0,0,0-.23c0-.08,0-.17,0-.29V403.2a1.84,1.84,0,0,0,0-.25,1,1,0,0,0-.05-.21.31.31,0,0,0-.11-.15.29.29,0,0,0-.18,0,.67.67,0,0,0-.39.16v2.48A.78.78,0,0,0,288.16,405.31Z" transform="translate(431.22 -63.77)"/><path class="cls-3" d="M291.27,406a1.2,1.2,0,0,1-1-.36,1.53,1.53,0,0,1-.31-1v-1.31a1.53,1.53,0,0,1,.31-1,1.45,1.45,0,0,1,1.91,0,1.51,1.51,0,0,1,.32,1v1.31a1.51,1.51,0,0,1-.32,1A1.21,1.21,0,0,1,291.27,406Zm0-.66a.32.32,0,0,0,.19,0,.28.28,0,0,0,.1-.16,1.08,1.08,0,0,0,0-.2,2.56,2.56,0,0,0,0-.26v-1.43c0-.08,0-.15,0-.21a1.65,1.65,0,0,0,0-.18.43.43,0,0,0-.06-.15.29.29,0,0,0-.26-.13.31.31,0,0,0-.19.05.29.29,0,0,0-.1.16,1.07,1.07,0,0,0,0,.2c0,.07,0,.15,0,.26v1.43c0,.08,0,.15,0,.21a1.27,1.27,0,0,0,0,.18.41.41,0,0,0,.06.15.29.29,0,0,0,.26.13Z" transform="translate(431.22 -63.77)"/><path class="cls-3" d="M293.2,405.92v-4h.94v.61a1.63,1.63,0,0,1,.4-.5.7.7,0,0,1,.43-.15l.14,0v.93a.89.89,0,0,0-.33-.06.7.7,0,0,0-.35.1,1,1,0,0,0-.3.31v2.72Z" transform="translate(431.22 -63.77)"/><path class="cls-3" d="M297.26,401.34v-.79h.94v.79Zm0,4.59v-4h.94v4Z" transform="translate(431.22 -63.77)"/><path class="cls-3" d="M298.94,405.92v-4h.94v.39a1.43,1.43,0,0,1,1-.45.54.54,0,0,1,.49.25,1.11,1.11,0,0,1,.16.61v3.17h-.94v-3a.57.57,0,0,0-.05-.28.22.22,0,0,0-.21-.09.79.79,0,0,0-.42.18v3.14Z" transform="translate(431.22 -63.77)"/><path class="cls-3" d="M303.37,406a1.15,1.15,0,0,1-1-.38,1.75,1.75,0,0,1-.29-1.09v-1.15a1.74,1.74,0,0,1,.29-1.09,1.16,1.16,0,0,1,1-.37,1.23,1.23,0,0,1,.92.3,1.29,1.29,0,0,1,.29.92v.32h-.87v-.34a.86.86,0,0,0-.07-.42.32.32,0,0,0-.51,0,1.34,1.34,0,0,0-.07.52v1.45a1.16,1.16,0,0,0,.08.51.27.27,0,0,0,.26.13.26.26,0,0,0,.25-.13.89.89,0,0,0,.07-.39v-.42h.87v.38a1.31,1.31,0,0,1-.29.93A1.2,1.2,0,0,1,303.37,406Z" transform="translate(431.22 -63.77)"/><path class="cls-3" d="M305.22,401.34v-.79h.94v.79Zm0,4.59v-4h.94v4Z" transform="translate(431.22 -63.77)"/><path class="cls-3" d="M307.79,406a.83.83,0,0,1-.73-.34,2,2,0,0,1-.24-1.09V403.4a3.14,3.14,0,0,1,0-.58,1.86,1.86,0,0,1,.15-.47.79.79,0,0,1,.3-.33.85.85,0,0,1,.46-.12,1,1,0,0,1,.7.3v-1.83h.94v5.55h-.94v-.27A1,1,0,0,1,307.79,406Zm.33-.67a.75.75,0,0,0,.36-.11v-2.53a.69.69,0,0,0-.37-.12.28.28,0,0,0-.27.17,1,1,0,0,0-.08.43v1.45a2.21,2.21,0,0,0,0,.35.51.51,0,0,0,.11.24A.27.27,0,0,0,308.12,405.32Z" transform="translate(431.22 -63.77)"/><path class="cls-3" d="M310.16,401.34v-.79h.94v.79Zm0,4.59v-4h.94v4Z" transform="translate(431.22 -63.77)"/><path class="cls-3" d="M312.74,406a.83.83,0,0,1-.73-.34,1.94,1.94,0,0,1-.24-1.09V403.4a3.14,3.14,0,0,1,0-.58,1.82,1.82,0,0,1,.15-.47.79.79,0,0,1,.3-.33.85.85,0,0,1,.46-.12,1,1,0,0,1,.7.3v-1.83h.94v5.55h-.94v-.27A1,1,0,0,1,312.74,406Zm.33-.67a.74.74,0,0,0,.36-.11v-2.53a.69.69,0,0,0-.36-.12.28.28,0,0,0-.27.17,1,1,0,0,0-.08.43v1.45a2.22,2.22,0,0,0,0,.35.51.51,0,0,0,.11.24A.27.27,0,0,0,313.06,405.32Z" transform="translate(431.22 -63.77)"/><path class="cls-3" d="M315.7,406a.54.54,0,0,1-.49-.25,1.12,1.12,0,0,1-.16-.61V402H316v3a.52.52,0,0,0,.06.27.22.22,0,0,0,.21.09.75.75,0,0,0,.4-.17V402h.93v4h-.93v-.37A1.42,1.42,0,0,1,315.7,406Z" transform="translate(431.22 -63.77)"/><path class="cls-3" d="M318.31,405.92v-4h.94v.39a1.42,1.42,0,0,1,1-.45.54.54,0,0,1,.49.25,1.12,1.12,0,0,1,.16.61v3.17h-.94v-3a.56.56,0,0,0-.05-.28.22.22,0,0,0-.21-.09.78.78,0,0,0-.42.18v3.14Z" transform="translate(431.22 -63.77)"/><path class="cls-3" d="M322.66,406a1.12,1.12,0,0,1-.46-.09.66.66,0,0,1-.29-.25,1.15,1.15,0,0,1-.15-.36,2.13,2.13,0,0,1,0-.47v-2.22h-.39V402h.39V400.8h.94V402h.6v.62h-.6v2.28a.38.38,0,0,0,.08.28.38.38,0,0,0,.27.09l.28,0v.72A4.29,4.29,0,0,1,322.66,406Z" transform="translate(431.22 -63.77)"/><path class="cls-3" d="M323.79,405.92V405h.91v.93Z" transform="translate(431.22 -63.77)"/><circle class="cls-10" cx="2.14" cy="125.93" r="1.47"/><path class="cls-7" d="M-363.77,268.76l117.37,67.76a4.82,4.82,0,0,0,4.34.18l70-40.44c1.11-.64,1-1.76-.31-2.51L-289.7,226a4.82,4.82,0,0,0-4.34-.18l-70,40.44C-365.19,266.89-365.05,268-363.77,268.76Z" transform="translate(431.22 -63.77)"/><path class="cls-13" d="M-289.91,200.91l14.84-88-1.19-.5,1.79-1h0a1.29,1.29,0,0,1,1.38.1l118.57,68.46a3.35,3.35,0,0,1,1.54,3l-15,88.72a1.11,1.11,0,0,1-.62.9h0l-1.75,1-.3-1.64.1,0-117.86-68A3.35,3.35,0,0,1-289.91,200.91Z" transform="translate(431.22 -63.77)"/><path class="cls-14" d="M-155.18,182.33l1.95-.86a2.68,2.68,0,0,1,.25,1.47l-15,88.72a1.11,1.11,0,0,1-.62.9h0l-1.75,1-.3-1.64.1,0-6-3.44Z" transform="translate(431.22 -63.77)"/><path class="cls-15" d="M-290.23,205l118.57,68.46c.92.53,1.7.22,1.86-.72l15-88.72a3.35,3.35,0,0,0-1.54-3L-275,112.53c-.92-.53-1.7-.22-1.86.72l-15,88.72A3.35,3.35,0,0,0-290.23,205Z" transform="translate(431.22 -63.77)"/><path class="cls-16" d="M-290.23,205l118.57,68.46c.92.53,1.7.22,1.86-.72l15-88.72a3.35,3.35,0,0,0-1.54-3L-275,112.53c-.92-.53-1.7-.22-1.86.72l-15,88.72A3.35,3.35,0,0,0-290.23,205Z" transform="translate(431.22 -63.77)"/><polygon class="cls-17" points="156.47 53.65 273.58 121.27 259.41 204.83 142.37 137.25 156.47 53.65"/><path class="cls-18" d="M-364.77,247l6.47,3.38,64.89-37.46a4.71,4.71,0,0,1,4.24.18l111.91,64.61c1.07-.6,6-2.95,6-2.95l-2.37,6.17h0a1.41,1.41,0,0,1-.66.73l-68.34,39.46a4.71,4.71,0,0,1-4.24-.18l-114.52-66.12a2,2,0,0,1-1-1h0Z" transform="translate(431.22 -63.77)"/><path class="cls-19" d="M-363.77,248.06l117.37,67.76a4.82,4.82,0,0,0,4.34.18l70-40.44c1.11-.64,1-1.76-.31-2.51L-289.7,205.29a4.82,4.82,0,0,0-4.34-.18l-70,40.44C-365.19,246.19-365.05,247.32-363.77,248.06Z" transform="translate(431.22 -63.77)"/><path class="cls-20" d="M-363.77,246.91l117.37,67.76a4.82,4.82,0,0,0,4.34.18l70-40.44a1.65,1.65,0,0,0,.58-.53,1.17,1.17,0,0,1-.58,1.68l-70,40.44a4.82,4.82,0,0,1-4.34-.18l-117.37-67.76c-1-.57-1.29-1.35-.89-2A2.36,2.36,0,0,0-363.77,246.91Z" transform="translate(431.22 -63.77)"/><g class="cls-21"><g class="cls-22"><path class="cls-23" d="M-289.53,205.23l130.66,75.44a5.37,5.37,0,0,0,4.83.2l78-45c1.24-.72,1.08-2-.35-2.79l-130.66-75.44a5.37,5.37,0,0,0-4.83-.2l-78,45C-291.12,203.15-291,204.4-289.53,205.23Z" transform="translate(431.22 -63.77)"/><polygon class="cls-24" points="170.3 139.56 264.9 194.17 261.15 196.33 166.56 141.72 170.3 139.56"/><polygon class="cls-25" points="180.27 133.8 270.18 185.71 266.43 187.87 176.52 135.97 180.27 133.8"/><polygon class="cls-11" points="276.89 189.59 285.29 194.44 281.54 196.6 273.15 191.75 276.89 189.59"/><polygon class="cls-11" points="269.48 196.81 275.32 200.19 271.58 202.35 265.73 198.98 269.48 196.81"/><polygon class="cls-26" points="186.51 130.2 291.54 190.83 287.79 192.99 182.77 132.36 186.51 130.2"/><polygon class="cls-27" points="192.76 126.59 297.78 187.22 294.03 189.39 189.01 128.75 192.76 126.59"/><polygon class="cls-28" points="199 122.98 304.03 183.62 300.28 185.78 195.26 125.15 199 122.98"/></g></g><polygon class="cls-11" points="138.68 156.79 223.4 205.7 227.17 203.53 142.45 154.61 138.68 156.79"/><polygon class="cls-11" points="129.45 162.12 208.91 208 212.68 205.82 133.21 159.94 129.45 162.12"/><polygon class="cls-11" points="123.43 165.59 216.99 219.61 220.76 217.44 127.2 163.42 123.43 165.59"/><polygon class="cls-11" points="117.42 169.06 210.98 223.08 214.75 220.91 121.18 166.89 117.42 169.06"/><polygon class="cls-11" points="111.4 172.54 204.96 226.56 208.73 224.38 115.17 170.36 111.4 172.54"/><polygon class="cls-11" points="228.52 208.66 232.29 210.83 236.06 208.66 232.29 206.48 228.52 208.66"/><polygon class="cls-11" points="215.24 211.65 223.05 216.16 226.82 213.99 219 209.47 215.24 211.65"/><g class="cls-29"><polygon class="cls-3" points="166.14 78.61 173.89 83.09 174.11 81.74 166.37 77.27 166.14 78.61"/><polygon class="cls-3" points="175.13 83.8 179.35 86.24 179.58 84.89 175.36 82.46 175.13 83.8"/><polygon class="cls-3" points="185.91 90.03 188.97 91.79 189.19 90.44 186.14 88.68 185.91 90.03"/><polygon class="cls-3" points="183.69 88.74 184.73 89.34 184.96 88 183.91 87.39 183.69 88.74"/><polygon class="cls-3" points="180.61 86.96 182.5 88.06 182.73 86.71 180.84 85.62 180.61 86.96"/><polygon class="cls-3" points="172.27 88.89 175.32 90.66 175.55 89.31 172.5 87.55 172.27 88.89"/><polygon class="cls-3" points="165.11 84.76 171.09 88.21 171.31 86.87 165.33 83.41 165.11 84.76"/><polygon class="cls-3" points="173.68 106.54 179.66 110 179.89 108.65 173.91 105.2 173.68 106.54"/><polygon class="cls-3" points="170.61 104.76 172.5 105.86 172.73 104.51 170.83 103.42 170.61 104.76"/><polygon class="cls-3" points="174.68 100.39 180.66 103.85 180.89 102.5 174.91 99.05 174.68 100.39"/><polygon class="cls-3" points="171.6 98.61 173.5 99.71 173.72 98.36 171.83 97.27 171.6 98.61"/><polygon class="cls-3" points="169.27 133.08 158.01 126.57 157.78 127.92 169.05 134.43 169.27 133.08"/><polygon class="cls-3" points="173.24 135.38 170.46 133.77 170.23 135.11 173.02 136.72 173.24 135.38"/><polygon class="cls-3" points="193.04 136.68 181.77 130.17 181.55 131.51 192.81 138.02 193.04 136.68"/><polygon class="cls-3" points="197.01 138.97 194.22 137.36 194 138.71 196.78 140.32 197.01 138.97"/><polygon class="cls-3" points="161.58 125.27 158.53 123.5 158.3 124.85 161.35 126.61 161.58 125.27"/><polygon class="cls-3" points="180.15 129.25 177.09 127.48 176.87 128.83 179.92 130.59 180.15 129.25"/><polygon class="cls-3" points="168.74 129.41 162.76 125.95 162.53 127.29 168.51 130.75 168.74 129.41"/><polygon class="cls-3" points="171.82 131.18 169.92 130.09 169.7 131.43 171.59 132.53 171.82 131.18"/><polygon class="cls-3" points="179.04 135.35 173.06 131.89 172.83 133.24 178.81 136.69 179.04 135.35"/><polygon class="cls-3" points="182.11 137.12 180.22 136.03 179.99 137.37 181.89 138.47 182.11 137.12"/><polygon class="cls-3" points="179.63 132.32 176.58 130.56 176.35 131.9 179.4 133.66 179.63 132.32"/><polygon class="cls-3" points="186.79 136.46 180.81 133 180.59 134.35 186.57 137.8 186.79 136.46"/><polygon class="cls-3" points="189.87 138.24 187.97 137.14 187.75 138.49 189.64 139.58 189.87 138.24"/><polygon class="cls-3" points="165.29 124.04 159.04 120.43 158.82 121.78 165.06 125.38 165.29 124.04"/><polygon class="cls-3" points="170.99 127.33 166.47 124.72 166.25 126.07 170.76 128.68 170.99 127.33"/><polygon class="cls-3" points="175.22 129.78 172.17 128.02 171.94 129.36 175 131.12 175.22 129.78"/><polygon class="cls-3" points="204.82 143.47 198.58 139.87 198.35 141.21 204.6 144.82 204.82 143.47"/><polygon class="cls-3" points="210.52 146.77 206.01 144.16 205.78 145.5 210.3 148.11 210.52 146.77"/><polygon class="cls-3" points="214.76 149.22 211.71 147.45 211.48 148.79 214.53 150.56 214.76 149.22"/><polygon class="cls-3" points="202.38 102.9 208.63 106.51 208.85 105.16 202.61 101.56 202.38 102.9"/><polygon class="cls-3" points="196.68 99.61 201.2 102.22 201.42 100.87 196.91 98.26 196.68 99.61"/><polygon class="cls-3" points="192.45 97.16 195.5 98.92 195.72 97.58 192.67 95.82 192.45 97.16"/><polygon class="cls-3" points="200.31 98.32 206.55 101.93 206.78 100.58 200.53 96.97 200.31 98.32"/><polygon class="cls-3" points="194.61 95.03 199.12 97.64 199.35 96.29 194.83 93.68 194.61 95.03"/><polygon class="cls-3" points="190.37 92.58 193.43 94.34 193.65 93 190.6 91.23 190.37 92.58"/><polygon class="cls-3" points="175.09 104 177.2 105.22 177.43 103.88 175.32 102.66 175.09 104"/><polygon class="cls-3" points="171.12 101.71 173.91 103.32 174.14 101.97 171.35 100.36 171.12 101.71"/><polygon class="cls-3" points="165.85 120.99 159.6 117.38 159.38 118.72 165.62 122.33 165.85 120.99"/><polygon class="cls-3" points="171.55 124.28 167.03 121.67 166.8 123.02 171.32 125.62 171.55 124.28"/><polygon class="cls-3" points="175.78 126.73 172.73 124.96 172.5 126.31 175.56 128.07 175.78 126.73"/><polygon class="cls-3" points="162.23 115.53 160.12 114.31 159.89 115.65 162 116.87 162.23 115.53"/><polygon class="cls-3" points="166.2 117.82 163.41 116.21 163.19 117.56 165.97 119.17 166.2 117.82"/><polygon class="cls-3" points="171.88 121.1 167.38 118.5 167.16 119.85 171.65 122.44 171.88 121.1"/><polygon class="cls-3" points="177.96 95.53 180.07 96.75 180.3 95.41 178.19 94.19 177.96 95.53"/><polygon class="cls-3" points="173.99 93.24 176.78 94.85 177 93.51 174.22 91.9 173.99 93.24"/><polygon class="cls-3" points="168.32 89.96 172.81 92.56 173.03 91.21 168.54 88.62 168.32 89.96"/><polygon class="cls-3" points="181.17 100.52 185.67 103.11 185.89 101.77 181.4 99.17 181.17 100.52"/><polygon class="cls-3" points="173.83 96.52 179.88 100.01 180.11 98.67 174.06 95.17 173.83 96.52"/><polygon class="cls-3" points="170.75 94.74 172.65 95.83 172.87 94.49 170.98 93.39 170.75 94.74"/><polygon class="cls-3" points="167.8 93.03 169.69 94.13 169.92 92.78 168.03 91.69 167.8 93.03"/><polygon class="cls-3" points="168.21 110.38 174.19 113.84 174.41 112.5 168.43 109.04 168.21 110.38"/><polygon class="cls-3" points="165.13 108.61 167.02 109.7 167.25 108.36 165.36 107.26 165.13 108.61"/><polygon class="cls-3" points="168.62 114 170.73 115.21 170.96 113.87 168.85 112.65 168.62 114"/><polygon class="cls-3" points="176.06 111.53 178.17 112.75 178.4 111.41 176.29 110.19 176.06 111.53"/><polygon class="cls-3" points="179.07 113.27 184.13 116.19 184.36 114.85 179.3 111.92 179.07 113.27"/><polygon class="cls-3" points="185.03 116.71 188.04 118.45 188.27 117.1 185.26 115.36 185.03 116.71"/><polygon class="cls-3" points="164.65 111.7 167.44 113.31 167.66 111.97 164.88 110.36 164.65 111.7"/><polygon class="cls-3" points="164.39 114.86 166.5 116.08 166.72 114.73 164.61 113.51 164.39 114.86"/><polygon class="cls-3" points="160.42 112.56 163.2 114.17 163.43 112.83 160.64 111.22 160.42 112.56"/><polygon class="cls-3" points="173 109.77 174.9 110.86 175.13 109.52 173.23 108.42 173 109.77"/><polygon class="cls-3" points="170.05 108.06 171.94 109.16 172.17 107.81 170.28 106.72 170.05 108.06"/><polygon class="cls-3" points="184.6 92.63 191.06 96.36 191.28 95.01 184.82 91.28 184.6 92.63"/><polygon class="cls-3" points="177.36 88.44 183.41 91.94 183.64 90.6 177.59 87.1 177.36 88.44"/><polygon class="cls-3" points="174.28 86.67 176.18 87.76 176.4 86.42 174.51 85.32 174.28 86.67"/><polygon class="cls-3" points="171.33 84.96 173.22 86.06 173.45 84.71 171.56 83.62 171.33 84.96"/><polygon class="cls-3" points="169.72 84.03 165.63 81.67 165.85 80.32 169.94 82.68 169.72 84.03"/></g></g></g></svg>